<svg xmlns="http://www.w3.org/2000/svg" enable-background="new 0 0 24 24" viewBox="0 0 24 24"><path d="M18.3,4.9c-1.1-0.8-2.4-1-3.6-0.5L6.8,7H6c-1.7,0-3,1.3-3,3v2c0,1.7,1.3,3,3,3h0.8L7,15.1V17c0,0.3,0.2,0.6,0.4,0.8l3,2
		c0.2,0.1,0.4,0.2,0.6,0.2c0.2,0,0.3,0,0.5-0.1c0.3-0.2,0.5-0.5,0.5-0.9v-2.3l2.7,0.9c0.4,0.1,0.9,0.2,1.3,0.2
		c0.8,0,1.6-0.3,2.3-0.8c1.1-0.8,1.7-1.9,1.7-3.2V8.2C20,6.9,19.4,5.7,18.3,4.9z M5,12v-2c0-0.6,0.4-1,1-1v4C5.4,13,5,12.6,5,12z
		 M10,17.1l-1-0.7v-0.7l1,0.3V17.1z M18,13.8c0,0.7-0.3,1.2-0.8,1.6c-0.5,0.4-1.2,0.5-1.8,0.3l-4-1.3c0,0,0,0,0,0l-3-1c0,0,0,0,0,0
		L8,13.3V8.7l7.4-2.5c0.6-0.2,1.3-0.1,1.8,0.3c0.5,0.4,0.8,1,0.8,1.6V13.8z"/></svg>