<svg xmlns="http://www.w3.org/2000/svg" viewBox="0 0 32 32"><path d="M27,9H25.6514A5.9476,5.9476,0,0,0,21.274,5.1563a5.9841,5.9841,0,0,0-10.548.0008A5.9575,5.9575,0,0,0,6.3489,9H5a1,1,0,0,0-1,1v4a1,1,0,0,0,1,1H6.0647l.9377,14.0664A1,1,0,0,0,8,30H24a1,1,0,0,0,.998-.9336L25.9358,15H27a1,1,0,0,0,1-1V10A1,1,0,0,0,27,9ZM23.4609,9H17.66c-.0141-.04-.037-.0755-.0518-.115a5.8394,5.8394,0,0,0-.3069-.6825c-.0172-.0322-.0272-.0679-.045-.1.0318-.03.065-.0579.0976-.0866a4.0416,4.0416,0,0,1,.3994-.3105c.05-.0344.1-.0709.1515-.1031a4.0359,4.0359,0,0,1,.6066-.3112l.0285-.01A3.98,3.98,0,0,1,20,7a3.1286,3.1286,0,0,1,.49.0332A4.0371,4.0371,0,0,1,23.4609,9ZM16,4a4.0139,4.0139,0,0,1,2.7852,1.126c-.0261.0054-.0509.0156-.0769.0214-.1689.0377-.334.087-.4986.139-.0722.0227-.1459.04-.2171.0652a6.0623,6.0623,0,0,0-.6819.29c-.0337.0169-.0647.0387-.0981.0563a6.0383,6.0383,0,0,0-.5443.3205c-.068.0453-.1312.0971-.1974.1452-.1359.0989-.27.2-.3975.31-.0235.02-.05.0366-.0734.0574-.0233-.0208-.05-.037-.0734-.0574-.1276-.11-.2616-.2112-.3975-.31-.0662-.0481-.1294-.1-.1974-.1453a6.0833,6.0833,0,0,0-.5423-.3193c-.0342-.018-.0659-.04-.1-.0575a6.0746,6.0746,0,0,0-.6811-.29c-.0725-.0259-.1475-.0433-.2209-.0664-.1632-.0514-.3268-.1005-.4942-.1378-.0262-.0059-.0512-.0161-.0776-.0216A4.0109,4.0109,0,0,1,16,4ZM11.54,7.0283A3.1042,3.1042,0,0,1,12,7a4.0281,4.0281,0,0,1,3.2031,1.6045A3.8411,3.8411,0,0,1,15.4382,9H8.54A4.0694,4.0694,0,0,1,11.54,7.0283ZM23.0645,28H8.9355L8.0688,15H23.9307ZM26,13H6V11H26Z"/></svg>