<svg xmlns="http://www.w3.org/2000/svg" viewBox="0 0 32 32"><g data-name="Layer 2"><path d="M26.88,9H20V6.57A3.8,3.8,0,0,0,16,3a3.8,3.8,0,0,0-4,3.57V9H5.12A3.12,3.12,0,0,0,2,12.12V25.88A3.12,3.12,0,0,0,5.12,29H26.88A3.12,3.12,0,0,0,30,25.88V12.12A3.12,3.12,0,0,0,26.88,9ZM14,6.57A1.83,1.83,0,0,1,16,5a1.83,1.83,0,0,1,2,1.57V9H14ZM28,25.88A1.12,1.12,0,0,1,26.88,27H5.12A1.12,1.12,0,0,1,4,25.88V12.12A1.12,1.12,0,0,1,5.12,11H26.88A1.12,1.12,0,0,1,28,12.12Z"/><path d="M25 14H18a1 1 0 000 2h7a1 1 0 000-2zM25 18H18a1 1 0 000 2h7a1 1 0 000-2zM25 22H18a1 1 0 000 2h7a1 1 0 000-2zM13.09 19.83A3.46 3.46 0 0014 17.5a3.5 3.5 0 00-7 0 3.46 3.46 0 00.91 2.33A4.5 4.5 0 006 23.5a1 1 0 002 0 2.5 2.5 0 015 0 1 1 0 002 0A4.5 4.5 0 0013.09 19.83zM9 17.5A1.5 1.5 0 1110.5 19 1.5 1.5 0 019 17.5z"/></g></svg>