<svg id="SvgjsSvg1001" width="288" height="288" xmlns="http://www.w3.org/2000/svg" version="1.1" xmlns:xlink="http://www.w3.org/1999/xlink" xmlns:svgjs="http://svgjs.com/svgjs"><defs id="SvgjsDefs1002"></defs><g id="SvgjsG1008"><svg xmlns="http://www.w3.org/2000/svg" viewBox="0 0 48 48" width="288" height="288"><path fill="#000000" d="M33,24a5.0059,5.0059,0,0,1-5,5,4.9557,4.9557,0,0,1-1.788-.3436,6.9572,6.9572,0,0,0,0-9.3128A4.9557,4.9557,0,0,1,28,19,5.0059,5.0059,0,0,1,33,24ZM21,19a5,5,0,1,0,5,5A5.0059,5.0059,0,0,0,21,19Zm24-5V34a5.0059,5.0059,0,0,1-5,5H8a5.0059,5.0059,0,0,1-5-5V14A5.0059,5.0059,0,0,1,8,9H40A5.0059,5.0059,0,0,1,45,14ZM35,24a7.0078,7.0078,0,0,0-7-7,6.911,6.911,0,0,0-3.4882.9542,7,7,0,1,0,0,12.0916A6.911,6.911,0,0,0,28,31,7.0078,7.0078,0,0,0,35,24Z" data-name="Creadit Card" class="color404a6b svgShape"></path></svg></g></svg>