<svg xmlns="http://www.w3.org/2000/svg" fill-rule="evenodd" stroke-linejoin="round" stroke-miterlimit="1.414" clip-rule="evenodd" viewBox="0 0 32 32"><rect width="32" height="32" fill="none"/><path fill-rule="nonzero" d="M28.236,11.028c0.434,0.127 0.742,0.512 0.764,0.972l0,12c-0.024,0.492 -0.38,0.852 -0.877,1.011c-3.95,1.273 -8.263,1.272 -12.198,0.016c-1.986,-0.634 -4.064,-1.026 -6.15,-1c-1.852,0.023 -3.704,0.339 -5.459,0.921c0,0 -0.344,0.103 -0.65,-0.006c-0.387,-0.137 -0.646,-0.528 -0.666,-0.942l0,-16c0.024,-0.493 0.38,-0.852 0.877,-1.012c3.942,-1.27 8.263,-1.272 12.198,-0.016c0.857,0.274 1.725,0.527 2.611,0.693c2.981,0.56 6.116,0.343 8.998,-0.614c0,0 0.185,-0.043 0.185,-0.043c0.084,-0.007 0.105,-0.012 0.19,-0.007c0.876,0.052 1.416,1.564 0.209,1.963c-0.032,0.011 -0.064,0.021 -0.097,0.032c-3.972,1.291 -8.317,1.286 -12.246,0.031c-1.832,-0.585 -3.735,-0.97 -5.655,-0.999c-1.773,-0.027 -3.548,0.212 -5.258,0.704l-0.012,13.93c3.663,-0.944 7.51,-0.828 11.075,0.31c3.52,1.124 7.343,1.322 10.913,0.295c0,0 0.012,-11.267 0.012,-11.267c0,0 0.262,-1.16 1.236,-0.972Zm-4.186,8.995c0.717,0.05 1.206,0.969 0.76,1.585c-0.27,0.372 -0.778,0.423 -1.299,0.465c-1.18,0.095 -2.38,0.072 -3.55,-0.05c-0.653,-0.068 -1.139,-0.789 -0.881,-1.394c0.189,-0.443 0.698,-0.634 1.209,-0.583c1.198,0.115 2.404,0.113 3.602,-0.018c0,0 0.051,-0.008 0.159,-0.005Zm-8.024,-8.006c1.837,0.017 3.553,1.435 3.89,3.254c0.459,2.475 -1.853,5.162 -4.644,4.645c-1.616,-0.3 -2.973,-1.702 -3.213,-3.336c-0.324,-2.211 1.488,-4.51 3.864,-4.563c0.034,0 0.068,0 0.103,0Zm-0.039,2c-1.3,0.012 -2.379,1.549 -1.785,2.819c0.424,0.908 1.608,1.384 2.547,1c1.016,-0.415 1.534,-1.76 1.006,-2.759c-0.328,-0.623 -1.001,-1.044 -1.716,-1.06c-0.017,0 -0.035,0 -0.052,0Zm-5.921,-3.995c0.66,0.003 1.321,0.039 1.977,0.11c0.219,0.024 0.889,0.329 0.951,0.892c0.063,0.573 -0.462,1.148 -1.063,1.107c-1.239,-0.086 -2.541,-0.139 -3.826,-0.003c0,0 -0.513,0.003 -0.801,-0.277c-0.519,-0.503 -0.268,-1.588 0.552,-1.707c0.705,-0.103 1.467,-0.123 2.21,-0.122Z"/></svg>