<svg width="51" height="51" viewBox="0 0 51 51" fill="none" xmlns="http://www.w3.org/2000/svg">
<circle cx="25.5" cy="25.5" r="25.5" fill="#407EA0" fill-opacity="0.2"/>
<path d="M31.198 27.4074C30.9583 27.227 30.8586 27.0269 30.819 26.7468L29.8287 19.7455C29.7495 19.1853 30.1101 18.7058 30.6703 18.6266C31.2304 18.5474 31.7099 18.9081 31.7891 19.4682L32.7794 26.4696C32.8586 27.0297 32.4979 27.5092 31.9378 27.5884C31.6577 27.628 31.4378 27.5877 31.198 27.4074Z" fill="#FF0000"/>
<path d="M23.2064 21.3964C22.9666 21.2161 22.8669 21.016 22.8273 20.7359C22.7481 20.1758 23.1087 19.6963 23.6688 19.6171L30.6702 18.6268C31.2303 18.5476 31.7098 18.9083 31.7891 19.4684C31.8683 20.0285 31.5076 20.508 30.9475 20.5872L23.9461 21.5775C23.6661 21.6171 23.4461 21.5768 23.2064 21.3964Z" fill="#FF0000"/>
<path d="M20.59 33.1926C20.1105 32.832 20.0313 32.2718 20.3919 31.7923L30.0097 19.0057C30.3704 18.5262 30.9305 18.447 31.41 18.8077C31.8895 19.1683 31.9687 19.7284 31.6081 20.2079L21.9903 32.9946C21.6296 33.4741 21.0695 33.5533 20.59 33.1926Z" fill="#FF0000"/>
</svg>
