<svg width="40" height="32" viewBox="0 0 40 32" fill="none" xmlns="http://www.w3.org/2000/svg">
<path d="M0 10C0 4.47715 4.47715 0 10 0H30C35.5228 0 40 4.47715 40 10V22C40 27.5228 35.5228 32 30 32H10C4.47715 32 0 27.5228 0 22V10Z" fill="#407EA0" fill-opacity="0.9"/>
<path d="M10.5001 14.5601L19.5001 19.7601C19.6521 19.8478 19.8245 19.894 20.0001 19.894C20.1756 19.894 20.3481 19.8478 20.5001 19.7601L29.5001 14.5601C29.6516 14.4722 29.7774 14.346 29.8648 14.1942C29.9523 14.0424 29.9983 13.8703 29.9983 13.6951C29.9983 13.5199 29.9523 13.3478 29.8648 13.196C29.7774 13.0441 29.6516 12.918 29.5001 12.8301L20.5001 7.63007C20.3481 7.5423 20.1756 7.49609 20.0001 7.49609C19.8245 7.49609 19.6521 7.5423 19.5001 7.63007L10.5001 12.8301C10.3485 12.918 10.2227 13.0441 10.1353 13.196C10.0479 13.3478 10.0018 13.5199 10.0018 13.6951C10.0018 13.8703 10.0479 14.0424 10.1353 14.1942C10.2227 14.346 10.3485 14.4722 10.5001 14.5601ZM20.0001 9.65007L27.0001 13.6501L20.0001 17.7001L13.0001 13.6901L20.0001 9.65007ZM28.5001 17.4401L20.0001 22.3501L11.5001 17.4401C11.3865 17.3735 11.261 17.3301 11.1306 17.3122C11.0002 17.2942 10.8676 17.3022 10.7403 17.3357C10.6131 17.3691 10.4936 17.4274 10.3889 17.5071C10.2842 17.5867 10.1962 17.6863 10.1301 17.8001C10.064 17.9142 10.0211 18.0403 10.0039 18.1711C9.9867 18.3018 9.99556 18.4347 10.0299 18.5621C10.0643 18.6894 10.1236 18.8087 10.2043 18.913C10.285 19.0174 10.3855 19.1047 10.5001 19.1701L19.5001 24.3701C19.6521 24.4578 19.8245 24.504 20.0001 24.504C20.1756 24.504 20.3481 24.4578 20.5001 24.3701L29.5001 19.1701C29.6147 19.1047 29.7152 19.0174 29.7959 18.913C29.8766 18.8087 29.9358 18.6894 29.9702 18.5621C30.0046 18.4347 30.0134 18.3018 29.9963 18.1711C29.9791 18.0403 29.9362 17.9142 29.8701 17.8001C29.8039 17.6863 29.7159 17.5867 29.6112 17.5071C29.5065 17.4274 29.3871 17.3691 29.2598 17.3357C29.1325 17.3022 28.9999 17.2942 28.8695 17.3122C28.7392 17.3301 28.6136 17.3735 28.5001 17.4401Z" fill="white"/>
</svg>
