<svg width="40" height="33" viewBox="0 0 40 33" fill="none" xmlns="http://www.w3.org/2000/svg">
<rect opacity="0.9" y="1" width="40" height="32" rx="10" fill="#407EA0" fill-opacity="0.9"/>
<path d="M20.8799 22.6704C20.6641 22.6685 20.4494 22.6416 20.2399 22.5904L13.7599 21.0004C13.4946 20.9367 13.2656 20.7703 13.123 20.5378C12.9805 20.3052 12.9362 20.0256 12.9999 19.7604C13.0635 19.4952 13.2299 19.2661 13.4625 19.1236C13.695 18.981 13.9746 18.9367 14.2399 19.0004L20.7199 20.6204C20.8894 20.6625 21.0686 20.6396 21.2221 20.5564C21.3757 20.4731 21.4926 20.3354 21.5499 20.1704C21.6057 20.0031 21.5954 19.8207 21.521 19.6608C21.4466 19.5008 21.3138 19.3754 21.1499 19.3104L13.0499 16.1004L7.44985 18.8904C7.21676 18.9874 6.95557 18.9927 6.71874 18.9052C6.4819 18.8177 6.28695 18.6438 6.17302 18.4184C6.05909 18.1931 6.03461 17.933 6.10451 17.6904C6.17441 17.4478 6.3335 17.2406 6.54985 17.1104L12.5499 14.1104C12.6788 14.0524 12.8185 14.0225 12.9599 14.0225C13.1012 14.0225 13.2409 14.0524 13.3699 14.1104L21.8899 17.5204C22.4719 17.7516 22.9551 18.1787 23.256 18.7279C23.5569 19.2772 23.6568 19.9143 23.5383 20.5293C23.4198 21.1443 23.0904 21.6987 22.6069 22.0969C22.1234 22.495 21.5162 22.712 20.8899 22.7104L20.8799 22.6704Z" fill="white"/>
<path d="M20 28.0002H19.85L6.84996 26.0002C6.71863 25.9805 6.59248 25.9351 6.47869 25.8666C6.3649 25.7982 6.26571 25.708 6.18678 25.6012C6.10785 25.4944 6.05073 25.3731 6.01867 25.2443C5.98662 25.1154 5.98026 24.9815 5.99996 24.8502C6.01966 24.7189 6.06503 24.5927 6.13348 24.4789C6.20193 24.3651 6.29213 24.2659 6.39892 24.187C6.5057 24.1081 6.62699 24.0509 6.75586 24.0189C6.88472 23.9868 7.01864 23.9805 7.14996 24.0002L19.79 26.0002L31.44 18.8302C30.9829 18.4876 30.439 18.2798 29.8699 18.2303C29.3009 18.1809 28.7293 18.2917 28.22 18.5502L25.45 19.9302C25.2169 20.0272 24.9557 20.0325 24.7188 19.945C24.482 19.8575 24.2871 19.6836 24.1731 19.4582C24.0592 19.2329 24.0347 18.9728 24.1046 18.7302C24.1745 18.4876 24.3336 18.2804 24.55 18.1502L27.33 16.7602C28.438 16.2065 29.7102 16.0767 30.9073 16.3953C32.1043 16.7139 33.1437 17.4589 33.83 18.4902C33.9042 18.6005 33.9558 18.7246 33.9815 18.8551C34.0073 18.9856 34.0068 19.1199 33.98 19.2502C33.9506 19.3824 33.8947 19.5074 33.8157 19.6174C33.7366 19.7274 33.636 19.8202 33.52 19.8902L20.52 27.8902C20.3597 27.9731 20.18 28.0111 20 28.0002ZM24.15 16.0002C23.1031 15.9975 22.0852 15.6563 21.2484 15.0273C20.4115 14.3984 19.8006 13.5156 19.5069 12.5108C19.2132 11.506 19.2526 10.4331 19.619 9.45251C19.9854 8.47189 20.6593 7.63616 21.54 7.07017C21.7641 6.92696 22.0359 6.87863 22.2956 6.93583C22.5554 6.99303 22.7817 7.15106 22.925 7.37517C23.0682 7.59928 23.1165 7.8711 23.0593 8.13084C23.0021 8.39058 22.8441 8.61696 22.62 8.76017C22.0991 9.08969 21.6996 9.57971 21.4817 10.1562C21.2638 10.7328 21.2394 11.3646 21.4122 11.9562C21.5849 12.5478 21.9454 13.0672 22.4393 13.4359C22.9332 13.8046 23.5336 14.0027 24.15 14.0002C24.8246 13.9973 25.4764 13.7551 25.9892 13.3168C26.5021 12.8784 26.8429 12.2724 26.9509 11.6064C27.0589 10.9404 26.9271 10.2577 26.579 9.67981C26.2309 9.10186 25.6891 8.66614 25.05 8.45017C24.9122 8.40364 24.7863 8.32765 24.681 8.22748C24.5756 8.12731 24.4934 8.00538 24.44 7.87017C24.379 7.73854 24.3475 7.59522 24.3475 7.45017C24.3475 7.30512 24.379 7.16181 24.44 7.03017L25 6.15017C24.7075 6.25815 24.3959 6.30499 24.0846 6.28779C23.7733 6.27059 23.4688 6.18972 23.19 6.05017C23.094 6.00098 22.9847 5.98414 22.8783 6.00216C22.772 6.02019 22.6744 6.0721 22.6 6.15017C22.4126 6.33642 22.1591 6.44096 21.895 6.44096C21.6308 6.44096 21.3773 6.33642 21.19 6.15017C21.0962 6.05721 21.0218 5.94661 20.9711 5.82475C20.9203 5.70289 20.8942 5.57218 20.8942 5.44017C20.8942 5.30816 20.9203 5.17745 20.9711 5.0556C21.0218 4.93374 21.0962 4.82313 21.19 4.73017C21.557 4.37869 22.0213 4.14587 22.5225 4.06204C23.0237 3.97821 23.5385 4.04725 24 4.26017C24.0352 4.27943 24.0748 4.28952 24.115 4.28952C24.1551 4.28952 24.1947 4.27943 24.23 4.26017C24.7021 4.02694 25.2353 3.94687 25.7552 4.03112C26.275 4.11538 26.7556 4.35975 27.13 4.73017C27.2812 4.88255 27.3794 5.07956 27.41 5.29207C27.4406 5.50458 27.402 5.7213 27.3 5.91017L26.7 7.05017C27.6125 7.60174 28.3178 8.43864 28.7068 9.43141C29.0958 10.4242 29.1468 11.5175 28.8519 12.5421C28.5571 13.5668 27.9327 14.4658 27.0755 15.0999C26.2183 15.734 25.1761 16.068 24.11 16.0502L24.15 16.0002Z" fill="white"/>
</svg>
