<svg width="40" height="32" viewBox="0 0 40 32" fill="none" xmlns="http://www.w3.org/2000/svg">
<rect width="40" height="32" rx="10" fill="#407EA0" fill-opacity="0.9"/>
<path d="M30 6H10C9.73478 6 9.48043 6.10536 9.29289 6.29289C9.10536 6.48043 9 6.73478 9 7V15C9 15.2652 9.10536 15.5196 9.29289 15.7071C9.48043 15.8946 9.73478 16 10 16H13V25C13 25.2652 13.1054 25.5196 13.2929 25.7071C13.4804 25.8946 13.7348 26 14 26H26C26.2652 26 26.5196 25.8946 26.7071 25.7071C26.8946 25.5196 27 25.2652 27 25V16H30C30.2652 16 30.5196 15.8946 30.7071 15.7071C30.8946 15.5196 31 15.2652 31 15V7C31 6.73478 30.8946 6.48043 30.7071 6.29289C30.5196 6.10536 30.2652 6 30 6ZM15 24V22C15.5304 22 16.0391 22.2107 16.4142 22.5858C16.7893 22.9609 17 23.4696 17 24H15ZM25 24H23C23 23.4696 23.2107 22.9609 23.5858 22.5858C23.9609 22.2107 24.4696 22 25 22V24ZM25 20C23.9391 20 22.9217 20.4214 22.1716 21.1716C21.4214 21.9217 21 22.9391 21 24H19C19 22.9391 18.5786 21.9217 17.8284 21.1716C17.0783 20.4214 16.0609 20 15 20V12H25V20ZM29 14H27V11C27 10.7348 26.8946 10.4804 26.7071 10.2929C26.5196 10.1054 26.2652 10 26 10H14C13.7348 10 13.4804 10.1054 13.2929 10.2929C13.1054 10.4804 13 10.7348 13 11V14H11V8H29V14ZM20 19C20.5933 19 21.1734 18.8241 21.6667 18.4944C22.1601 18.1648 22.5446 17.6962 22.7716 17.1481C22.9987 16.5999 23.0581 15.9967 22.9424 15.4147C22.8266 14.8328 22.5409 14.2982 22.1213 13.8787C21.7018 13.4591 21.1672 13.1734 20.5853 13.0576C20.0033 12.9419 19.4001 13.0013 18.8519 13.2284C18.3038 13.4554 17.8352 13.8399 17.5056 14.3333C17.1759 14.8266 17 15.4067 17 16C17 16.7956 17.3161 17.5587 17.8787 18.1213C18.4413 18.6839 19.2044 19 20 19ZM20 15C20.1978 15 20.3911 15.0586 20.5556 15.1685C20.72 15.2784 20.8482 15.4346 20.9239 15.6173C20.9996 15.8 21.0194 16.0011 20.9808 16.1951C20.9422 16.3891 20.847 16.5673 20.7071 16.7071C20.5673 16.847 20.3891 16.9422 20.1951 16.9808C20.0011 17.0194 19.8 16.9996 19.6173 16.9239C19.4346 16.8482 19.2784 16.72 19.1685 16.5556C19.0586 16.3911 19 16.1978 19 16C19 15.7348 19.1054 15.4804 19.2929 15.2929C19.4804 15.1054 19.7348 15 20 15Z" fill="white"/>
</svg>
