<svg width="51" height="51" viewBox="0 0 51 51" fill="none" xmlns="http://www.w3.org/2000/svg">
<circle cx="25.5" cy="25.5" r="25.5" fill="#407EA0" fill-opacity="0.2"/>
<path d="M21.0522 23.7708C21.2611 23.9862 21.3285 24.1994 21.3241 24.4822L21.2146 31.5525C21.2059 32.1181 20.7751 32.5357 20.2095 32.527C19.6438 32.5182 19.2262 32.0874 19.2349 31.5218L19.3444 24.4516C19.3532 23.886 19.784 23.4683 20.3496 23.4771C20.6324 23.4815 20.8434 23.5554 21.0522 23.7708V23.7708Z" fill="#27E0A6"/>
<path d="M28.0131 30.9505C28.2219 31.1659 28.2893 31.3791 28.2849 31.6619C28.2762 32.2276 27.8454 32.6452 27.2798 32.6364L20.2096 32.5269C19.6439 32.5182 19.2263 32.0874 19.2351 31.5218C19.2438 30.9562 19.6746 30.5385 20.2402 30.5473L27.3104 30.6568C27.5932 30.6612 27.8043 30.7351 28.0131 30.9505V30.9505Z" fill="#27E0A6"/>
<path d="M32.4303 19.7039C32.8479 20.1347 32.8392 20.7003 32.4084 21.1179L20.9209 32.2551C20.4901 32.6727 19.9245 32.664 19.5068 32.2332C19.0892 31.8024 19.0979 31.2368 19.5287 30.8192L31.0162 19.682C31.447 19.2643 32.0126 19.2731 32.4303 19.7039Z" fill="#27E0A6"/>
</svg>
