<svg xmlns="http://www.w3.org/2000/svg" width="64" height="64" viewBox="0 0 16.933 16.933"><path fill="#a8c5f7" d="m 11.638086,4.1805992 0.528272,0 c 0.273934,0 0.494466,0.220532 0.494466,0.4944663 V 6.277955 c 0,0.2739344 -0.220532,0.4944664 -0.494466,0.4944664 h -0.528272 c -0.273934,0 -0.494466,-0.220532 -0.494466,-0.4944664 V 4.6750655 c 0,-0.2739343 0.220532,-0.4944663 0.494466,-0.4944663 z" transform="matrix(.96403 -.26578 .25202 .96772 0 0)"/><path fill="#91b8fb" d="m 12.88138,0.795305 c -0.0327,0.0022 -0.0662,0.008 -0.0992,0.01705 l -0.1602,0.04392 c 0.1111,0.06238 0.19749,0.168246 0.23254,0.302824 l 0.40411,1.551327 c 0.069,0.265092 -0.0883,0.536977 -0.35243,0.609782 l -0.34778,0.09612 c 0.10766,0.06031 0.23809,0.08024 0.36793,0.04444 l 0.50902,-0.14056 c 0.26408,-0.0728 0.42147,-0.34469 0.35243,-0.609782 L 13.38369,1.159099 C 13.32329,0.927144 13.11058,0.779778 12.88139,0.795297 Z"/><path fill="#a8c5f7" d="M 2.11667,2.645865 H 0.79375 c 0,2.11667 0.26458,3.96875 1.5875,5.82084 0,-1.05834 0.26458,-3.175 0.79375,-4.49811 z"/><path fill="#91b8fb" d="M 1.5875,2.645838 2.64583,3.968755 C 2.22531,5.020217 1.97459,6.5650934 1.88826,7.689458 2.03397,7.9490291 2.19636,8.2078225 2.38125,8.4666716 2.38125,7.4083316 2.64583,5.291865 3.175,3.968755 L 2.11667,2.645838 Z"/><path fill="#e2e7fa" d="M 2.64583,6.0854216 12.17083,2.910422 11.90625,2.116672 3.175,3.968755 Z"/><path fill="#c4d2f0" d="M7.96592 2.95228L6.99337 3.158985C6.7536904 3.3597136 6.6150313 3.6561364 6.61458 3.968755 6.6150608 4.2285192 6.7110724 4.4790331 6.88433 4.672588L8.7266 4.058672c.00294-.029889.00461-.059889.005-.08992C8.7314119 3.4972852 8.4193385 3.0828042 7.96627 2.952277zM3.62717 3.872637L3.175 3.968757 2.64583 6.0854236 3.18223 5.9066232C3.31094 5.212113 3.48316 4.521342 3.70417 3.968757z"/><path fill="#a8c5f7" d="m 8.2020867,3.9685833 c 10e-8,0.5844622 -0.4738319,1.0582624 -1.0583332,1.0582624 -0.5845013,-1e-7 -1.0583332,-0.4738003 -1.0583331,-1.0582624 0,-0.5844621 0.4738319,-1.0582622 1.0583331,-1.0582623 0.5845013,0 1.0583332,0.4738002 1.0583332,1.0582623 z"/><path fill="#91b8fb" d="m 7.14375,2.910422 c -0.08982,2.009e-4 -0.1792486,0.011834 -0.26613,0.03462 0.4675473,0.1199578 0.7946855,0.54105 0.7953,1.02371 -3.105e-4,0.481916 -0.3261968,0.9027621 -0.79272,1.02371 0.086046,0.02257 0.1745941,0.034201 0.26355,0.03462 C 7.7282776,5.0270802 8.202119,4.5532375 8.20208,3.968749 8.202119,3.3842605 7.7282776,2.9104178 7.14375,2.910416 Z"/><path fill="#e2e7fa" d="M 4.7625,16.139588 7.14375,13.229172 9.525,16.139588 7.67292,5.027088 H 6.61458 Z"/><path fill="#c4d2f0" d="M 7.14375,5.027088 8.86044,15.327235 9.525,16.139588 7.67292,5.027088 Z M 6.87917,12.905677 4.89789,15.327235 4.7625,16.139588 7.14375,13.229172 Z"/><path fill="#f8f8f8" d="M 25 19 L 18 61 L 20.511719 57.929688 L 27 19 L 25 19 z M 29 50 L 28 51.222656 L 36 61 L 35.488281 57.929688 L 29 50 z " transform="scale(.26458)"/><path fill="#e2e7fa" d="m 16.139584,6.4822435 c 0,0.5114044 -1.303038,0.9259796 -2.910417,0.9259795 -1.607379,1e-7 -2.910417,-0.4145751 -2.910417,-0.9259795 0,-0.5114044 1.303038,-0.9259796 2.910417,-0.9259795 1.607379,-10e-8 2.910417,0.4145751 2.910417,0.9259795 z"/><path fill="#c4d2f0" d="m 15.61042,5.95158 c 1e-6,5.333e-4 1e-6,0.00107 0,0.0016 1.08e-4,0.5114292 -1.302963,0.9260426 -2.91042,0.926042 -0.948837,-3.993e-4 -1.837497,-0.1479308 -2.38125,-0.395325 0.0026,0.5108234 1.304865,0.9244923 2.91042,0.924491 1.607452,-1.2e-6 2.910517,-0.4146134 2.91041,-0.926041 -0.0011,-0.1899881 -0.185825,-0.3752718 -0.52916,-0.530717 z"/><path fill="#f8f8f8" d="M 50 21 C 43.924867 21 39 22.567133 39 24.5 C 39 26.432867 43.924867 28 50 28 C 50.342569 28 50.665422 27.976546 51 27.966797 C 45.40117 27.803654 41 26.323875 41 24.5 C 41 22.676121 45.401154 21.194388 51 21.03125 C 50.665434 21.021501 50.342558 21 50 21 z " transform="scale(.26458)"/><path fill="#a8c5f7" d="m 10.31875,6.614589 v 1.984374 c 0,0.51141 1.30305,0.926042 2.91042,0.926042 1.60738,0 2.91041,-0.414632 2.91041,-0.926042 V 6.614589 h -0.0331 c -0.2024,0.448509 -1.41165,0.793749 -2.87734,0.793749 -1.46568,0 -2.67494,-0.34524 -2.87734,-0.793749 z"/><path fill="#91b8fb" d="m 16.10651,6.614589 c -0.0655,0.145163 -0.24508,0.277416 -0.49609,0.39274 v 1.062468 c 0,0.511409 -1.30304,0.926041 -2.91042,0.926041 -0.98649,0 -1.85489,-0.156967 -2.38125,-0.395841 0.002,0.51094 1.30412,0.925008 2.91042,0.925008 1.60738,0 2.91041,-0.414632 2.91041,-0.926042 V 6.614589 Z"/><path fill="#a8c5f7" d="m 10.31875,8.731255 v 1.984374 c 0,0.51141 1.30305,0.926042 2.91042,0.926042 1.60738,0 2.91041,-0.414632 2.91041,-0.926042 V 8.731255 h -0.0331 c -0.2024,0.448509 -1.41165,0.793749 -2.87734,0.793749 -1.46568,0 -2.67494,-0.34524 -2.87734,-0.793749 z"/><path fill="#91b8fb" d="m 16.10651,8.731255 c -0.0655,0.145163 -0.24508,0.277416 -0.49609,0.392741 v 1.062467 c 0,0.511409 -1.30304,0.926041 -2.91042,0.926041 -0.98649,0 -1.85489,-0.156967 -2.38125,-0.395841 0.002,0.51094 1.30412,0.925008 2.91042,0.925008 1.60738,0 2.91041,-0.414632 2.91041,-0.926042 V 8.731255 Z"/><path fill="#a8c5f7" d="m 10.31875,10.847922 v 1.984374 c 0,0.51141 1.30305,0.926042 2.91042,0.926042 1.60738,0 2.91041,-0.414632 2.91041,-0.926042 v -1.984374 h -0.0331 c -0.2024,0.448509 -1.41166,0.79375 -2.87734,0.79375 -1.46568,0 -2.67495,-0.345241 -2.87735,-0.79375 z"/><path fill="#91b8fb" d="m 16.10651,10.847922 c -0.0655,0.145163 -0.24508,0.277416 -0.49609,0.39274 v 1.062468 c 0,0.51141 -1.30304,0.926041 -2.91042,0.926041 -0.98649,0 -1.85489,-0.156966 -2.38125,-0.395841 0.002,0.51094 1.30412,0.925008 2.91042,0.925008 1.60738,0 2.91041,-0.414632 2.91041,-0.926042 v -1.984374 z"/><path fill="#f8f8f8" d="m 39,25 v 7.5 c 0,1.932888 4.924901,3.5 11,3.5 0.342558,0 0.665434,-0.0215 1,-0.03125 C 45.401178,35.80559 41,34.323899 41,32.5 V 26.484375 C 40.051296,26.048505 39.372591,25.54865 39.125,25 Z" transform="scale(.26458)"/><path fill="#f8f8f8" d="M 10.31875,8.7312552 V 10.71563 c 0,0.51141 1.303047,0.926042 2.910416,0.926042 0.09064,0 0.176063,-0.0057 0.264584,-0.0083 -1.481355,-0.04317 -2.645833,-0.435201 -2.645833,-0.917774 V 9.1239961 C 10.596905,9.0086722 10.417331,8.8764189 10.351823,8.7312552 Z"/><path fill="#f8f8f8" d="m 10.318749,10.847921 v 1.984375 c 0,0.51141 1.303047,0.926042 2.910416,0.926042 0.09064,0 0.176063,-0.0057 0.264584,-0.0083 -1.481355,-0.04317 -2.645833,-0.435201 -2.645833,-0.917774 V 11.240662 C 10.596904,11.125338 10.41733,10.993085 10.351822,10.847921 Z"/><path fill="#f8f8f8" d="M3 10C3 18.000013 3.9999873 24.999975 9 32 9 31.178753 9.0524147 30.160389 9.1367188 29.0625 5.746927 23.024007 5 16.881927 5 10L3 10zM27 11C24.790862 11 23 12.791009 23 15 23 17.208991 24.790861 19 27 19 27.3474 19 27.678625 18.940653 28 18.857422 26.277733 18.411384 25 16.861614 25 15 25 13.138334 26.277659 11.586613 28 11.140625 27.678669 11.057419 27.347348 11 27 11zM48.685547 3.0058594C48.5618 3.0142388 48.43531 3.0359164 48.310547 3.0703125L46.386719 3.5996094C45.388614 3.8747785 44.795715 4.9043261 45.056641 5.90625L46.582031 11.767578C46.842957 12.769502 47.857364 13.355247 48.855469 13.080078L49.464844 12.912109C49.044149 12.676466 48.714664 12.27687 48.582031 11.767578L47.056641 5.90625C46.795702 4.9043259 47.388629 3.8747786 48.386719 3.5996094L49.705078 3.2363281C49.401235 3.0657345 49.049197 2.9812349 48.685547 3.0058594z" transform="scale(.26458)"/><path fill="#66a0fe" d="M 12.206524,0.69640833 C 11.805559,0.80695035 11.560654,1.2312383 11.66547,1.6337759 L 11.74348,1.9345115 7.696707,2.7680272 C 7.5298013,2.6915258 7.3391397,2.6465949 7.1442773,2.6465949 c -0.385124,0 -0.736206,0.159913 -0.9808115,0.4356182 L 3.279395,3.6764743 2.3244253,2.4807318 C 2.2742221,2.4177306 2.1977673,2.3809299 2.1172023,2.3810299 H 0.79273939 c -0.14617922,5.1e-4 -0.2641266,0.1194423 -0.26356657,0.265615 0,2.1119796 0.27028699,4.0201354 1.58802948,5.9033009 V 13.495218 H 1.058866 v -0.806644 c 5.794e-4,-0.147153 -0.11900749,-0.266465 -0.26612661,-0.265605 -0.14612921,5.82e-4 -0.2641366,0.119472 -0.26356657,0.265605 v 1.070179 c -5.6003e-4,0.146134 0.11743736,0.265026 0.26356657,0.265606 H 3.9687582 c 0.1461092,-5.83e-4 0.2641067,-0.119472 0.2635566,-0.265606 v -1.070179 c 5.821e-4,-0.146133 -0.1174374,-0.265035 -0.2635566,-0.265605 -0.1461091,5.82e-4 -0.2641165,0.119472 -0.2635466,0.265605 v 0.806644 H 2.6463654 V 8.467264 c 0,-0.5205795 0.072004,-1.3335848 0.2092832,-2.1724006 L 6.3215958,5.1714722 C 5.7146692,8.81326 5.1085965,12.455102 4.5020617,16.096946 c -0.042103,0.264285 0.289308,0.416898 0.462499,0.212905 l 2.1797166,-2.613699 2.1776365,2.613699 c 0.1733508,0.202663 0.5037116,0.0506 0.4624991,-0.212905 C 9.1699045,12.404932 8.554448,8.7147549 7.9396071,5.0228495 8.0980971,4.9133274 8.2546268,4.7257838 8.3473328,4.5143798 L 12.110408,3.2938272 c 0.142759,0.3251459 0.500521,0.5110295 0.853684,0.4283779 v 1.5776295 c -0.719255,0.02 -1.371426,0.1152423 -1.873268,0.2749054 -0.281868,0.089702 -0.519042,0.1972636 -0.703314,0.3358761 -0.184281,0.1386326 -0.333831,0.3323562 -0.333831,0.5725708 0.002,2.1146618 10e-4,4.2324091 10e-4,6.3481781 0,0.240215 0.15006,0.433439 0.334341,0.572041 0.184282,0.138623 0.420937,0.246725 0.702804,0.336407 0.563746,0.179363 1.310392,0.283175 2.136824,0.283175 0.826432,0 1.575149,-0.103812 2.138884,-0.283175 0.281868,-0.0897 0.518513,-0.197784 0.702794,-0.336407 0.184282,-0.138602 0.333831,-0.331826 0.333831,-0.572041 2e-5,-2.158769 0,-4.3259631 0,-6.4819806 0,-0.29835 -0.503561,-0.6319242 -1.036075,-0.7746044 C 14.866131,5.4150769 14.21333,5.3198251 13.493775,5.2998748 V 3.5785823 l 0.007,-0.00201 C 13.901724,3.466031 14.14669,3.0412331 14.041863,2.6386956 L 13.638277,1.0889864 C 13.546571,0.73675984 13.21475,0.50801559 12.864776,0.53071562 12.644421,0.55946436 12.428257,0.63527439 12.206524,0.69640833 Z m 1.324933,2.08403907 c 0.0332,0.1276824 -0.0366,0.2491547 -0.16381,0.2842154 L 12.859155,3.2047053 C 12.731977,3.239806 12.61231,3.1706047 12.579067,3.0429724 L 12.175992,1.4932432 c -0.0332,-0.1276724 0.0366,-0.2491447 0.16381,-0.2842153 l 0.507982,-0.1405527 c 0.0318,-0.009 0.0629,-0.0108 0.09251,-0.00711 0.0889,0.010485 0.162645,0.073586 0.187584,0.1693657 z M 11.877303,2.4466412 11.965109,2.7845875 8.4635199,3.9203988 C 8.4595197,3.6526337 8.3665139,3.4063092 8.2190947,3.2016054 Z M 1.0841776,2.9101599 H 1.9900643 L 2.8737297,4.0185805 C 2.4624539,5.1315416 2.2316294,6.5310377 2.1554247,7.6295984 1.3066214,6.1465907 1.1042387,4.6151618 1.0841776,2.9101599 Z m 6.0600897,0.266125 c 0.4414876,0 0.7927196,0.3517265 0.7927196,0.7932048 0,0.4414782 -0.351232,0.7926851 -0.7927196,0.7926851 -0.4414875,0 -0.7952997,-0.3512069 -0.7952997,-0.7926851 0,-0.4414783 0.3538122,-0.7932048 0.7952997,-0.7932048 z m -1.292951,0.5120895 c -0.0199,0.090702 -0.031502,0.1846935 -0.031502,0.2811153 0,0.2717451 0.083605,0.5246899 0.2258342,0.7353339 L 2.9621152,5.7052423 C 3.0714921,5.161012 3.2101008,4.6387724 3.373461,4.1994542 Z m 1.291921,0.016499 c -0.1461193,0 -0.2645867,0.1184522 -0.2645867,0.2645748 0,0.1461329 0.1184674,0.2645751 0.2645867,0.2645751 0.1461191,0 0.2645864,-0.1184422 0.2645864,-0.2645751 0,-0.1461226 -0.1184673,-0.2645748 -0.2645864,-0.2645748 z M 6.8440284,5.2525331 c 0.096506,0.024102 0.1964123,0.039301 0.3002389,0.039301 0.1027963,0 0.2016427,-0.0152 0.2976585,-0.037701 L 7.9566182,8.3422111 7.1442673,9.2387677 6.3293361,8.3422111 Z M 15.752506,6.631559 c -0.110266,0.082902 -0.299848,0.1758335 -0.544664,0.2537349 -0.48963,0.1557729 -1.197745,0.2578447 -1.978684,0.2578447 -0.780939,0 -1.488543,-0.1020718 -1.978184,-0.2578447 C 11.006159,6.8073924 10.816067,6.7145107 10.70579,6.631559 10.598413,6.5507575 10.584542,6.5026868 10.583832,6.4828412 c 6.88e-4,-0.019904 0.0145,-0.070006 0.121958,-0.1508078 0.110277,-0.082902 0.300369,-0.1763433 0.545184,-0.2542347 0.432767,-0.1376328 1.040145,-0.2287644 1.713598,-0.2490647 v 9.998e-4 0.5203697 c -5.82e-4,0.1461187 0.117423,0.2650337 0.263546,0.2656052 0.146932,5.82e-4 0.266191,-0.1186774 0.265617,-0.2656052 V 5.8297338 c 0.673642,0.020299 1.2813,0.1113821 1.714107,0.2490746 0.244816,0.077902 0.434398,0.1712933 0.544664,0.2542348 0.107437,0.080802 0.121758,0.1308826 0.122478,0.150303 -7.41e-4,0.019301 -0.0151,0.067501 -0.122478,0.1482128 z m -5.168683,0.5458503 c 0.14736,0.081402 0.31602,0.1516426 0.506942,0.2123938 0.563796,0.1793435 1.311952,0.2831652 2.138394,0.2831652 0.826431,0 1.575149,-0.1038217 2.138884,-0.2831652 0.191682,-0.061001 0.359783,-0.1315925 0.506941,-0.2134339 v 1.4231265 c 0,0.017499 -0.0415,0.1135222 -0.253736,0.2304644 -0.212223,0.1169523 -0.553174,0.2313544 -0.984432,0.3105658 -0.862504,0.1584231 -1.951782,0.1584231 -2.814286,0 C 11.391273,9.0613244 11.048251,8.9469124 10.836018,8.8299601 10.623785,8.713028 10.584352,8.6170163 10.584088,8.5994957 Z m 0.793249,0.7601341 c -0.146132,3e-6 -0.264592,0.1184578 -0.264586,0.2645751 0,0.1461131 0.118458,0.2645621 0.264586,0.2645647 0.146128,-2.6e-6 0.264587,-0.1184516 0.264587,-0.2645647 6e-6,-0.1461173 -0.118455,-0.2645721 -0.264587,-0.2645751 z m 1.082118,0.2306845 c -0.145744,-0.013139 -0.274474,0.09452 -0.287318,0.2402845 -0.01288,0.1448114 0.09351,0.2728838 0.238225,0.2867955 0.266777,0.024102 0.542094,0.035101 0.818551,0.035101 0.696074,0 1.370496,-0.075801 1.921841,-0.220654 0.140302,-0.037622 0.224037,-0.1813179 0.187591,-0.3219261 -0.03037,-0.1157162 -0.134618,-0.1966532 -0.25426,-0.197494 -0.02299,-4.076e-4 -0.04592,0.00229 -0.06821,0.00791 -0.491828,0.1292425 -1.129988,0.203084 -1.786958,0.2030839 -0.260915,0 -0.519271,-0.010499 -0.769457,-0.033101 z M 6.2182293,9.0082235 6.7846049,9.6314253 5.9644933,10.536252 Z m 1.8494959,0 0.254246,1.5259585 -0.8206215,-0.9027567 z m 2.5160978,0.2862854 c 0.289889,0.1590631 0.675613,0.2815452 1.143092,0.3674068 0.938459,0.1723734 2.06703,0.1723734 3.005488,0 0.46824,-0.086002 0.852553,-0.2085038 1.142581,-0.3679267 v 1.422607 c 0,0.0175 -0.0415,0.113522 -0.253736,0.230464 -0.212223,0.116962 -0.553174,0.231344 -0.984432,0.310576 -0.862504,0.158423 -1.951782,0.158423 -2.814286,0 -0.431257,-0.0792 -0.774279,-0.193614 -0.986512,-0.310576 -0.212233,-0.116942 -0.251666,-0.212934 -0.25193,-0.230464 z M 7.1442673,10.024673 8.3803646,11.385788 7.1442673,12.869876 5.9055796,11.385788 Z m 4.2328047,0.0295 c -0.146128,3e-6 -0.264586,0.118453 -0.264586,0.264565 -1.1e-5,0.146121 0.11845,0.264582 0.264586,0.264585 0.146136,-3e-6 0.264598,-0.118464 0.264587,-0.264585 0,-0.146112 -0.118459,-0.264562 -0.264587,-0.264565 z m 3.638538,0.0612 c -0.491831,0.129263 -1.129991,0.203084 -1.786962,0.203084 -0.260926,-10e-6 -0.519272,-0.0105 -0.769458,-0.0331 -0.14501,-0.01318 -0.273414,0.09329 -0.287318,0.238224 -0.01318,0.145005 0.09329,0.273408 0.238225,0.287315 0.266777,0.0241 0.542084,0.0367 0.818551,0.0367 0.696074,0 1.370496,-0.0758 1.921841,-0.220664 0.140298,-0.03763 0.224027,-0.18132 0.187581,-0.321926 -0.03037,-0.115708 -0.134615,-0.19664 -0.25425,-0.197514 -0.02299,-4.37e-4 -0.04592,0.0023 -0.06821,0.0079 z m 0.859374,1.295765 v 1.420526 c 0,0.0155 -0.0127,0.0674 -0.122988,0.150373 -0.110277,0.0829 -0.299858,0.174284 -0.544674,0.252175 -0.48963,0.155773 -1.197735,0.259405 -1.978684,0.259405 -0.780939,0 -1.486993,-0.103632 -1.976624,-0.259405 -0.244815,-0.0779 -0.434407,-0.169223 -0.544674,-0.252175 -0.110267,-0.083 -0.122988,-0.134882 -0.122988,-0.150373 v -1.419496 c 0.289819,0.158893 0.675413,0.279015 1.142572,0.364817 0.938459,0.172383 2.06703,0.172383 3.005498,0 0.46819,-0.086 0.852534,-0.206434 1.142562,-0.365847 z M 5.7221283,11.99144 6.7985557,13.282274 5.1831443,15.22162 Z m 2.8416879,0 0.5389736,3.23018 -1.6148709,-1.939346 z m 2.8132558,0.179313 c -0.146132,3e-6 -0.264592,0.118458 -0.264586,0.264575 -6e-6,0.146117 0.118454,0.264572 0.264586,0.264575 0.146132,-3e-6 0.264593,-0.118458 0.264587,-0.264575 6e-6,-0.146117 -0.118455,-0.264572 -0.264587,-0.264575 z m 3.638538,0.0617 c -0.491831,0.129243 -1.129991,0.203084 -1.786962,0.203074 -0.260926,0 -0.519272,-0.0125 -0.769458,-0.0351 -0.145747,-0.01314 -0.27448,0.09452 -0.287318,0.240295 -0.01318,0.145001 0.09329,0.273398 0.238225,0.287305 0.266777,0.0241 0.542084,0.0372 0.818551,0.0372 0.696074,0 1.370496,-0.0763 1.921841,-0.221154 0.141326,-0.0376 0.225344,-0.182718 0.187581,-0.323996 -0.03037,-0.115712 -0.134612,-0.196649 -0.25425,-0.197514 -0.02308,2.34e-4 -0.04601,0.0036 -0.06821,0.0099 z" color="#000" font-family="sans-serif" font-weight="400" overflow="visible" style="line-height:normal;font-variant-ligatures:normal;font-variant-position:normal;font-variant-caps:normal;font-variant-numeric:normal;font-variant-alternates:normal;font-feature-settings:normal;text-indent:0;text-align:start;text-decoration-line:none;text-decoration-style:solid;text-decoration-color:#000;text-transform:none;text-orientation:mixed;shape-padding:0;isolation:auto;mix-blend-mode:normal"/></svg>