<svg width="20" height="20" viewBox="0 0 20 20" fill="none" xmlns="http://www.w3.org/2000/svg">
<path d="M9.601 0.650015L0.831772 8.45545L0.831744 8.45547C0.761573 8.51792 0.673336 8.63949 0.602398 8.79951C0.531624 8.95917 0.499661 9.10844 0.500003 9.20652C0.500003 9.20653 0.500003 9.20654 0.500003 9.20655L0.535336 18.9784L0.535336 18.9784C0.536393 19.2758 0.771678 19.5 1.03734 19.5H6.36133C6.62601 19.5 6.85933 19.2772 6.85933 18.9802V14.5616C6.85933 13.92 7.37188 13.382 8.025 13.382H12.018C12.6709 13.382 13.1833 13.9201 13.1833 14.5616V18.9802C13.1833 19.277 13.4168 19.5 13.6817 19.5H19.0053C19.2694 19.5 19.501 19.2782 19.5 18.982C19.5 18.982 19.5 18.982 19.5 18.982L19.4647 9.21014V9.2101C19.4643 9.11107 19.4313 8.96056 19.3596 8.79965C19.2878 8.63846 19.199 8.5155 19.1284 8.45203L9.601 0.650015ZM9.601 0.650015C9.60103 0.649984 9.60107 0.649954 9.6011 0.649924C9.82674 0.449302 10.2128 0.450191 10.4374 0.651611C10.4374 0.651625 10.4374 0.651639 10.4374 0.651654L19.1283 8.45195L9.601 0.650015Z" fill="#407EA0" stroke="#407EA0"/>
</svg>
