<svg width="28" height="28" viewBox="0 0 28 28" fill="none" xmlns="http://www.w3.org/2000/svg">
<rect width="28" height="28" rx="14" fill="#522ED2"/>
<path d="M13.4538 14.7268L13.0589 19.3083C13.0674 19.5379 13.2177 19.738 13.4358 19.8102C13.654 19.8823 13.894 19.8113 14.0377 19.6321C15.6862 17.5968 18.562 14.0437 18.562 14.0437C18.6765 13.8895 18.6889 13.6822 18.5937 13.5154C18.4986 13.3485 18.3138 13.2537 18.1228 13.2737H14.5458L14.9407 8.69165C14.9319 8.46191 14.7812 8.26184 14.5629 8.18984C14.3446 8.11784 14.1045 8.18906 13.9607 8.36848L9.43753 13.9562C9.32282 14.1104 9.31014 14.3178 9.4052 14.4848C9.50026 14.6518 9.68508 14.7468 9.8762 14.7268H13.4538Z" fill="white"/>
</svg>
