<svg xmlns="http://www.w3.org/2000/svg" viewBox="0 0 64 64"><path fill="#212e5a" d="M21.372 52.011v-.137c0-.028-.015-.051-.017-.079s-.009-.042-.014-.065a.951.951 0 0 0-.13-.358c-.9-1.9-5.619-2-6.591-2-1.01 0-6.079.108-6.68 2.192a1.452 1.452 0 0 0-.073.45v6.36c0 2.308 4.738 2.557 6.776 2.557 1.127 0 6.752-.128 6.752-2.642a1.345 1.345 0 0 0-.023-.247zm-11.5 2c.049.017.1.029.153.045.135.044.271.084.411.122l.235.059c.145.035.29.066.437.1l.218.043q.272.048.542.087l.106.016c.217.029.428.053.634.074l.177.015c.146.013.287.025.423.035l.194.012c.122.007.237.014.347.018.058 0 .113.006.167.007l.295.009.12 0 .294 0 .293 0 .12 0 .3-.009.165-.006c.111-.005.227-.012.349-.019l.192-.012c.137-.01.281-.022.428-.035l.171-.015c.207-.021.42-.045.637-.074.032-.005.065-.011.1-.015.183-.026.366-.055.551-.089.071-.012.142-.028.213-.042.149-.029.3-.061.441-.1.079-.019.156-.038.233-.059.141-.037.278-.079.413-.122.05-.016.1-.028.152-.045v.777a10.193 10.193 0 0 1-4.73.828 10.205 10.205 0 0 1-4.775-.84zm9.127-2c-.03.013-.055.025-.088.038l-.114.042c-.09.031-.19.063-.3.095-.042.012-.08.025-.124.037a10.39 10.39 0 0 1-1.116.237c-.063.011-.132.019-.2.029-.158.023-.322.044-.494.063-.084.01-.17.018-.257.027-.177.016-.363.03-.553.042-.085.005-.167.011-.255.015-.281.013-.572.022-.878.022s-.6-.009-.879-.022c-.087 0-.17-.01-.255-.015-.19-.012-.375-.026-.552-.042-.088-.009-.174-.017-.258-.027-.171-.019-.335-.04-.493-.063l-.2-.029a10.39 10.39 0 0 1-1.116-.237c-.044-.012-.083-.025-.124-.037-.107-.032-.207-.064-.3-.095l-.114-.042c-.033-.013-.058-.025-.088-.038a12.51 12.51 0 0 1 4.375-.638A12.508 12.508 0 0 1 18.994 52.007zm-4.351 6.921a10.887 10.887 0 0 1-4.776-.764v-1.2a16.687 16.687 0 0 0 4.775.651 16.555 16.555 0 0 0 4.73-.648V58.11A10.416 10.416 0 0 1 14.643 58.928zM38.77 44.833c0-.036-.017-.066-.02-.1v-6.24a1.377 1.377 0 0 0-.062-.414c-.612-2.12-5.681-2.228-6.691-2.228s-6.079.108-6.679 2.192a1.423 1.423 0 0 0-.073.45V58.286a1.053 1.053 0 0 0 .011.148l.015.1c.119 2.077 4.264 2.391 6.749 2.391 1.571 0 6.681-.187 6.722-2.578 0-.044.008-.1.008-.187V48.357c0-.049.02-.093.02-.144 0-.036-.017-.066-.02-.1V44.977C38.754 44.928 38.77 44.884 38.77 44.833zM27.808 40.658l.236.059c.144.035.289.066.436.095l.218.044c.182.032.362.061.542.087l.107.016c.216.029.428.053.634.074l.176.015c.146.013.287.025.423.035l.2.012c.122.007.236.014.346.018l.168.007.294.009.12 0 .294 0 .294 0 .119 0 .3-.009.166-.007c.11 0 .226-.011.348-.018l.193-.012c.137-.01.279-.022.426-.035l.173-.015c.207-.021.419-.045.636-.074l.1-.016c.181-.026.363-.054.545-.087l.217-.043c.147-.03.293-.061.438-.1l.235-.059c.14-.038.276-.079.411-.122.05-.016.1-.028.153-.045v.776a10.154 10.154 0 0 1-4.729.829 10.188 10.188 0 0 1-4.775-.84v-.765c.049.017.1.029.152.045C27.532 40.579 27.668 40.62 27.808 40.658zM32.02 44.1a16.522 16.522 0 0 0 4.729-.649v1.2a10.24 10.24 0 0 1-4.729.826 10.2 10.2 0 0 1-4.775-.84V43.445A16.683 16.683 0 0 0 32.02 44.1zm-4.775 9.488a17.708 17.708 0 0 0 9.5 0v1.2a10.176 10.176 0 0 1-4.729.828 10.2 10.2 0 0 1-4.775-.84zm9.5-2.177a10.169 10.169 0 0 1-4.729.828 10.188 10.188 0 0 1-4.775-.84v-1.19a17.814 17.814 0 0 0 9.5.009zm0-3.377a10.253 10.253 0 0 1-4.729.825 10.188 10.188 0 0 1-4.775-.84v-1.19a17.788 17.788 0 0 0 9.5.009zm-.376-9.542c-.029.012-.053.024-.084.036l-.123.045c-.088.031-.185.062-.288.092-.044.013-.085.027-.131.039a10.4 10.4 0 0 1-1.114.237c-.063.011-.132.019-.2.029q-.237.034-.5.063c-.083.01-.169.018-.256.027-.178.016-.363.03-.554.041-.085.006-.167.012-.254.016-.281.013-.572.022-.879.022s-.6-.009-.878-.022c-.088 0-.17-.01-.255-.016-.191-.011-.376-.025-.554-.041-.087-.009-.172-.017-.256-.027q-.258-.029-.495-.063c-.066-.01-.135-.018-.2-.029a10.4 10.4 0 0 1-1.114-.237c-.046-.012-.087-.026-.131-.039-.1-.03-.2-.061-.288-.092l-.122-.045c-.032-.012-.056-.024-.084-.036A12.506 12.506 0 0 1 32 37.85 12.517 12.517 0 0 1 36.373 38.488zM32.02 58.928c-2.841 0-4.381-.457-4.775-.716V56.964a17.708 17.708 0 0 0 9.5 0v1.156A10.144 10.144 0 0 1 32.02 58.928zM56.063 24.085c-.612-2.12-5.681-2.227-6.69-2.227s-6.079.107-6.68 2.192a1.452 1.452 0 0 0-.073.45V57.661c0 2.3 4.738 2.552 6.776 2.552 1.577 0 6.725-.188 6.725-2.609l0-33.1A1.357 1.357 0 0 0 56.063 24.085zm-1.938 6.571a10.194 10.194 0 0 1-4.73.827 10.188 10.188 0 0 1-4.775-.84V29.432A16.791 16.791 0 0 0 49.4 30.1a16.561 16.561 0 0 0 4.73-.649zM49.4 33.483a16.536 16.536 0 0 0 4.73-.646v1.2a10.182 10.182 0 0 1-4.73.828 10.188 10.188 0 0 1-4.775-.84v-1.19A16.678 16.678 0 0 0 49.4 33.483zm0 3.38a16.551 16.551 0 0 0 4.73-.648v1.2a10.182 10.182 0 0 1-4.73.828 10.188 10.188 0 0 1-4.775-.84V36.212A16.687 16.687 0 0 0 49.4 36.863zm0 3.38a16.551 16.551 0 0 0 4.73-.648v1.2a10.159 10.159 0 0 1-4.73.829 10.2 10.2 0 0 1-4.775-.84V39.592A16.687 16.687 0 0 0 49.4 40.243zm0 3.38a16.557 16.557 0 0 0 4.73-.649v1.172a10.156 10.156 0 0 1-4.73.829 10.188 10.188 0 0 1-4.775-.84V42.972A16.687 16.687 0 0 0 49.4 43.623zm0 3.352a16.524 16.524 0 0 0 4.73-.649v1.056a10.182 10.182 0 0 1-4.73.828 10.188 10.188 0 0 1-4.775-.84V46.324A16.687 16.687 0 0 0 49.4 46.975zm0 3.235a16.551 16.551 0 0 0 4.73-.648v1.056a10.182 10.182 0 0 1-4.73.828 10.2 10.2 0 0 1-4.775-.84V49.56A16.715 16.715 0 0 0 49.4 50.21zM44.62 52.8a16.687 16.687 0 0 0 4.775.651 16.52 16.52 0 0 0 4.73-.649v1.056a10.175 10.175 0 0 1-4.73.828 10.188 10.188 0 0 1-4.775-.84zm9.505-26.3v.777a10.182 10.182 0 0 1-4.73.828 9.952 9.952 0 0 1-4.775-.863V26.5c.049.017.1.029.153.045.135.043.271.084.41.121.079.021.157.041.236.06.145.035.29.066.437.095.073.015.144.03.218.043q.272.05.542.087l.106.017c.217.029.428.053.634.074l.177.015c.145.013.287.025.423.035l.194.012.347.018.167.007.3.009.12 0 .294 0 .293 0 .12 0 .3-.009.167-.007L50.6 27.1l.194-.012c.136-.01.278-.022.423-.035l.177-.015c.206-.021.418-.045.634-.074l.106-.017q.27-.037.543-.087c.073-.013.144-.028.217-.043.147-.029.292-.06.437-.095.08-.019.157-.039.236-.06.14-.037.275-.078.41-.121C54.022 26.528 54.076 26.516 54.125 26.5zm-.377-2c-.031.013-.056.025-.089.038l-.113.041c-.09.032-.191.064-.3.1l-.124.037a10.42 10.42 0 0 1-1.115.237l-.2.029c-.157.023-.321.044-.493.063l-.258.026c-.176.017-.362.031-.552.042-.085.006-.167.012-.255.016-.281.013-.572.022-.878.022s-.6-.009-.879-.022c-.087 0-.17-.01-.255-.016-.19-.011-.375-.025-.552-.042l-.258-.026c-.172-.019-.335-.04-.493-.063l-.2-.029a10.42 10.42 0 0 1-1.115-.237l-.124-.037c-.107-.032-.207-.064-.3-.1l-.114-.041c-.033-.013-.058-.025-.089-.038a12.522 12.522 0 0 1 4.376-.638A12.515 12.515 0 0 1 53.748 24.5zM49.4 58.213a10.955 10.955 0 0 1-4.776-.759V56.031a17.725 17.725 0 0 0 9.505 0v1.374A10.135 10.135 0 0 1 49.4 58.213z"/><path fill="#14d1db" d="M37.29,19.74a.2.2,0,0,1-.03.11h-.01C37.26,19.82,37.28,19.78,37.29,19.74Z"/><path fill="#212e5a" d="M43.19,11.19A6.913,6.913,0,0,0,38.57,8.5a6.023,6.023,0,0,0-1.19-.05l-1.71-.78c-1.46-.66-3.19-1.43-4.46-1.98l-.71-.31a5.739,5.739,0,0,0-3.15-.49,17.463,17.463,0,0,0-5.21,1.85l-.69.33c-.79.39-1.6.75-2.4,1.11-.52.23-1.04.47-1.55.71l-.12.05a11.526,11.526,0,0,1-3.69,1.22c-1.73.12-9.88.13-9.96.13a1,1,0,0,0-1,1v9.86a1,1,0,0,0,.97,1c1.15.04,2.45.07,3.75.11,1.34.03,2.67.07,3.86.11l.46.01a4.739,4.739,0,0,1,1.28.11c.45.12.9.27,1.34.41.28.09.56.18.84.26,1.48.45,2.96.89,4.45,1.33.32.09.65.17.97.26.66.18,1.28.34,1.9.55l.2.07a8.089,8.089,0,0,0,2.67.59,4.344,4.344,0,0,0,.71-.06,5.39,5.39,0,0,0,2.22-.9,15.012,15.012,0,0,1,3.58-1.49c.41-.14.81-.27,1.18-.4a11.948,11.948,0,0,0,1.65-.68c.09-.04.18-.09.27-.13a3.35,3.35,0,0,0,.45-.27h.01a7.26,7.26,0,0,0,2.16.35,6.986,6.986,0,0,0,6.91-6.04A6.905,6.905,0,0,0,43.19,11.19Zm-7.77,7.7a.22.22,0,0,1-.01.08c0,.03-.01.05-.01.07v.04c-.01.04-.02.07-.03.11,0,.01-.01.03-.01.04a1.686,1.686,0,0,1-.12.28,2.376,2.376,0,0,1-.55.61c-.01.01-.03.02-.04.03a3.518,3.518,0,0,1-.55.38c-.05.02-.1.05-.15.07-.03.01-.07.03-.1.04a9.586,9.586,0,0,1-1.4.58q-.555.2-1.14.39a15.87,15.87,0,0,0-4.14,1.77,3.265,3.265,0,0,1-1.37.55,5.164,5.164,0,0,1-2.39-.45l-.22-.07c-.68-.24-1.36-.42-2.03-.59-.31-.09-.62-.17-.93-.26-1.47-.43-2.95-.86-4.42-1.31-.27-.08-.53-.17-.8-.25-.48-.16-.95-.31-1.43-.44a6.754,6.754,0,0,0-1.79-.18l-.42-.01c-1.19-.04-2.53-.08-3.87-.11-.94-.03-1.88-.05-2.77-.08V12.29c2.27-.01,7.66-.03,9.1-.14a13.216,13.216,0,0,0,4.39-1.39l.12-.06c.51-.24,1.02-.47,1.53-.7.83-.37,1.65-.74,2.45-1.13L23,8.54a15.8,15.8,0,0,1,4.62-1.67,3.732,3.732,0,0,1,2.06.33l.72.32c1.13.49,2.62,1.15,3.96,1.75a4.8,4.8,0,0,0-.54.32c-.15.09-.29.2-.43.3l-.02.02c-.09.07-.17.14-.25.21s-.14.12-.21.19c-.05.05-.11.09-.15.14l-.15.15a4.121,4.121,0,0,0-.28.31,4,4,0,0,0-.4.52,2.9,2.9,0,0,0-.19.29,4.994,4.994,0,0,0-.29.5,14.847,14.847,0,0,0-6.21.65,5.311,5.311,0,0,0-2.16,1.41,3.288,3.288,0,0,0-.8,2.87,3.216,3.216,0,0,0,2.02,2.14l.26.1a2.492,2.492,0,0,0,1.63.2,45.688,45.688,0,0,0,5.35-1.48,1.172,1.172,0,0,0,.24-.09c.11-.03.22-.08.34-.12.02-.01.04-.01.06-.02a1.447,1.447,0,0,0,.25-.1h.01a1.128,1.128,0,0,0,.24-.08l.24-.09.11-.03c.07-.02.14-.05.21-.07s.14-.04.21-.06a1.448,1.448,0,0,1,.49-.07,1.538,1.538,0,0,1,1.43,1.11,1.652,1.652,0,0,1,.05.38Zm-4.69-2.61a48.164,48.164,0,0,1-4.82,1.33.794.794,0,0,1-.59-.07l-.31-.12a1.223,1.223,0,0,1-.78-.74,1.28,1.28,0,0,1,.35-1.08,3.322,3.322,0,0,1,1.37-.85,12.048,12.048,0,0,1,4.84-.56,2.5,2.5,0,0,0-.05.29A6.389,6.389,0,0,0,30.73,16.28Zm11.85-.21a4.99,4.99,0,0,1-5.52,4.27c.05-.11.1-.22.14-.33a.689.689,0,0,1,.03-.08.309.309,0,0,0,.02-.08c.01-.03.03-.07.04-.11a.2.2,0,0,0,.03-.11c.03-.11.05-.23.07-.35a1.948,1.948,0,0,0,.02-.25.375.375,0,0,0,.01-.11,3.642,3.642,0,0,0-.04-.57c-.02-.12-.05-.25-.08-.38a2.063,2.063,0,0,0-.12-.35,1.336,1.336,0,0,0-.07-.18,3.239,3.239,0,0,0-.17-.32c0-.01-.01-.01-.01-.02a4.044,4.044,0,0,0-.28-.4l-.02-.02a2.718,2.718,0,0,0-.37-.39,2.65,2.65,0,0,0-.26-.21,2.527,2.527,0,0,0-.49-.31.757.757,0,0,0-.18-.09,1.539,1.539,0,0,0-.19-.08,2.25,2.25,0,0,0-.24-.08,3.136,3.136,0,0,0-.61-.12c-.11-.01-.21-.02-.32-.02h-.02a4.108,4.108,0,0,0-1.06.14,1.723,1.723,0,0,0-.21.07,4.729,4.729,0,0,1,.04-.84,4.384,4.384,0,0,1,.29-1.12c.06-.15.13-.3.2-.45a4.759,4.759,0,0,1,.28-.49c.09-.14.19-.27.28-.39a.5.5,0,0,0,.07-.08c.1-.12.2-.23.31-.34a5.659,5.659,0,0,1,.66-.55c.12-.08.25-.16.37-.23.02-.01.05-.03.07-.04a4,4,0,0,1,.42-.2l.21-.09a2.637,2.637,0,0,1,.3-.1,3.145,3.145,0,0,1,.44-.11,1.163,1.163,0,0,1,.18-.04.507.507,0,0,1,.13-.02,3.106,3.106,0,0,1,.32-.04h.02a4.5,4.5,0,0,1,1.03.03,4.974,4.974,0,0,1,4.28,5.58Z"/><path fill="#212e5a" d="M37.25,19.85a.309.309,0,0,1-.02.08.689.689,0,0,0,.03-.08.2.2,0,0,0,.03-.11C37.28,19.78,37.26,19.82,37.25,19.85Zm0,0a.309.309,0,0,1-.02.08.689.689,0,0,0,.03-.08.2.2,0,0,0,.03-.11C37.28,19.78,37.26,19.82,37.25,19.85Z"/><path fill="#14d1db" d="M39.51,15.33A2.271,2.271,0,0,1,39.94,17a2.224,2.224,0,0,1-1.53,1.82l-.03.18a1,1,0,0,1-.99.86.615.615,0,0,1-.13-.01,13792069639457.92,13792069639457.92,0,0,1,.06-.22c.03-.11.05-.23.07-.35a1.948,1.948,0,0,0,.02-.25.375.375,0,0,0,.01-.11,3.642,3.642,0,0,0-.04-.57c-.02-.12-.05-.25-.08-.38a2.063,2.063,0,0,0-.12-.35,1.336,1.336,0,0,0-.07-.18,3.239,3.239,0,0,0-.17-.32c0-.01-.01-.01-.01-.02a4.044,4.044,0,0,0-.28-.4l-.02-.02a2.718,2.718,0,0,0-.37-.39.989.989,0,0,1,1.21.51.275.275,0,0,0,.2.14h.02a.269.269,0,0,0,.27-.22.255.255,0,0,0-.05-.19.237.237,0,0,0-.17-.1,2.257,2.257,0,0,1-1.04-4.04,2.181,2.181,0,0,1,.66-.34l.02-.17a1.016,1.016,0,0,1,1.13-.85,1,1,0,0,1,.85,1.14l-.02.17a2.28,2.28,0,0,1,.7.78.993.993,0,0,1-.4,1.36,1.015,1.015,0,0,1-1.36-.4.23.23,0,0,0-.18-.14h-.01a.27.27,0,0,0-.19.05.329.329,0,0,0-.1.17.255.255,0,0,0,.05.19.26.26,0,0,0,.17.1A2.266,2.266,0,0,1,39.51,15.33Z"/></svg>