<svg xmlns="http://www.w3.org/2000/svg" width="64" height="64" viewBox="0 0 64 64"><line x1="14.1" x2="13" y1="51" y2="51" fill="none" stroke="#414042" stroke-linecap="round" stroke-linejoin="round" stroke-width="2"/><line x1="9.28" x2="7" y1="45" y2="26" fill="none" stroke="#414042" stroke-linecap="round" stroke-linejoin="round" stroke-width="2"/><line x1="57" x2="54.72" y1="26" y2="45" fill="none" stroke="#414042" stroke-linecap="round" stroke-linejoin="round" stroke-width="2"/><polyline fill="none" stroke="#414042" stroke-linecap="round" stroke-linejoin="round" stroke-width="2" points="51.82 51 51 51 49.9 51"/><line x1="40.1" x2="23.9" y1="51" y2="51" fill="none" stroke="#414042" stroke-linecap="round" stroke-linejoin="round" stroke-width="2"/><path fill="none" stroke="#414042" stroke-linecap="round" stroke-linejoin="round" stroke-width="2" d="M24 52a5.012 5.012 0 11-.675-2.5A5 5 0 0124 52zM50 52a5.012 5.012 0 11-.675-2.5A5 5 0 0150 52z"/><polyline fill="none" stroke="#414042" stroke-linecap="round" stroke-linejoin="round" stroke-width="2" points="7 26 5 26 5 21 59 21 59 26 53 26"/><line x1="42" x2="11" y1="26" y2="26" fill="none" stroke="#414042" stroke-linecap="round" stroke-linejoin="round" stroke-width="2"/><line x1="48" x2="46" y1="26" y2="26" fill="none" stroke="#414042" stroke-linecap="round" stroke-linejoin="round" stroke-width="2"/><polyline fill="none" stroke="#414042" stroke-linecap="round" stroke-linejoin="round" stroke-width="2" points="8 18 13 15 17 17 19 21"/><polyline fill="none" stroke="#414042" stroke-linecap="round" stroke-linejoin="round" stroke-width="2" points="22 18.5 24 16 29 14 35 18"/><path fill="none" stroke="#414042" stroke-linecap="round" stroke-linejoin="round" stroke-width="2" d="M15,13V12c0-1,4-3,4-3l5,1,2,2"/><polyline fill="none" stroke="#414042" stroke-linecap="round" stroke-linejoin="round" stroke-width="2" points="32.75 16.5 35 15 41 14 45 18 47 21"/><polyline fill="none" stroke="#414042" stroke-linecap="round" stroke-linejoin="round" stroke-width="2" points="57 21 56 16 51 15 48 17"/><polyline fill="none" stroke="#414042" stroke-linecap="round" stroke-linejoin="round" stroke-width="2" points="36 12 38 10 45 9 49 13"/><polyline fill="none" stroke="#414042" stroke-linecap="round" stroke-linejoin="round" stroke-width="2" points="27 9 30 7 33 7 35 8"/><path fill="none" stroke="#414042" stroke-linecap="round" stroke-linejoin="round" stroke-width="2" d="M9.28 45H7v4a2 2 0 002 2h4M51 51h4a2 2 0 002-2V45H54.72"/><rect width="64" height="64" fill="none"/></svg>