<svg xmlns="http://www.w3.org/2000/svg" viewBox="0 0 64 64"><path fill="#d5e5f1" d="M24.738 13.457a7.999 7.999 0 0 0-7.456-2.138l-4.872 1.124-1.124 4.872a8.002 8.002 0 0 0 2.138 7.456l5.35 5.35 2.828-2.828 5.421-5.421 3.064-3.064-5.349-5.351z"/><path fill="#b0c4da" d="M28.088 16.807l-2.514 2.645a.74.74 0 0 1-.896.137l-.002-.001a1 1 0 0 0-1.193.167l-2.295 2.295.592 1.065-.385.385a3 3 0 0 1-4.243 0l-.729-.729a7.999 7.999 0 0 1-2.138-7.456l.806-3.491-2.681.619-1.124 4.872a8.002 8.002 0 0 0 2.138 7.456l3.35 3.35 2 2 2.5-2.5.328-.328 1.606-1.606 3.815-3.815.63-.63 2.435-2.435-2-2z"/><path fill="#d5e5f1" d="M53.262 33.208a24.316 24.316 0 0 0-5.111-13.305l.782-.782-4.243-4.243-.782.782a24.324 24.324 0 0 0-13.305-5.111 63.041 63.041 0 0 1 10.61 7.806l-.766.766 4.243 4.243.766-.766a63 63 0 0 1 7.806 10.61z"/><path fill="#d5e5f1" d="M43.909 15.66a24.324 24.324 0 0 0-13.305-5.111 63.041 63.041 0 0 1 10.61 7.806l2.695-2.695z"/><path fill="#d5e5f1" d="M43.909 15.66a24.324 24.324 0 0 0-13.305-5.111 63.041 63.041 0 0 1 10.61 7.806l2.695-2.695z"/><path fill="#b0c4da" d="M48.121 22.378l1.056-1.056a24.389 24.389 0 0 0-1.025-1.42l-2.695 2.695a63 63 0 0 1 7.806 10.61c-.08-1.153-.245-2.3-.489-3.433a64.065 64.065 0 0 0-4.689-6.031.995.995 0 0 1 .036-1.365zM41.434 15.691l1.056-1.056c.482.324.957.663 1.42 1.025l-2.695 2.695a63 63 0 0 0-10.61-7.806c1.153.08 2.3.245 3.433.489a64.065 64.065 0 0 1 6.031 4.689.995.995 0 0 0 1.365-.036z"/><path fill="#c96f29" d="M46.446 14.116h2.5v4h-2.5z" transform="rotate(-45.001 47.695 16.117)"/><path fill="#d5e5f1" d="M41.691 16.121h6v6h-6z" transform="rotate(45.001 44.691 19.12)"/><path fill="#b0c4da" d="M43.336 19.578l-1.673-1.673-1.215 1.215 4.243 4.243 4.243-4.243-1.156-1.156-1.613 1.613a2 2 0 0 1-2.829.001z"/><path fill="#ca7829" d="M29.083 31.9L12.517 48.466a2 2 0 1 0 2.828 2.828l16.566-16.566-2.828-2.828z"/><path fill="#c96f29" d="M14.576 51.766l.045-.013a1.95 1.95 0 0 0 .316-.152c.023-.013.048-.023.071-.037.119-.076.233-.164.338-.269l16.566-16.566-2.829-2.829-.516.516-.984.984.715.715a.999.999 0 0 1 0 1.414L13.424 50.404a1.98 1.98 0 0 1-1.171.562 1.991 1.991 0 0 0 1.938.889l.01-.001c.127-.017.252-.046.375-.088z"/><path fill="#ca7829" d="M31.419 23.883h13.018v4H31.419z" transform="rotate(-45.001 37.928 25.884)"/><path fill="#c96f29" d="M42.539 21.289l-1.423-1.423-1 1 .715.715a.999.999 0 0 1 0 1.414l-5.292 5.292a1 1 0 0 1-1.413.001l-.718-.715-1.498 1.498 2.83 2.829 1.5-1.5 6.705-6.705 1-1-1.406-1.406z"/><path fill="#ca7829" d="M27.813 25.094l-2.829 2.828L46.17 49.03l2.828-2.828z"/><path fill="#c96f29" d="M47.996 45.204l-.619.619a1 1 0 0 1-1.413.001l-17.765-17.7a1 1 0 0 1-.001-1.416l.615-.615-1-1-1.354 1.354-1.475 1.475 1.002.998L46.17 49.03l1.503-1.503 1.325-1.325-1.002-.998z"/><path fill="#617e95" d="M20.189 23.049l2.828-2.828 6.364 3.535-5.657 5.657z"/><path fill="#617e95" d="M20.189 23.049l2.828-2.828 6.364 3.535-5.657 5.657z"/><path fill="#4c6d86" d="M27.57 22.75l-1.486 1.486a2 2 0 0 1-3.163-.443l-1.242-2.235-1.485 1.485-.006.006 3.536 6.364 5.657-5.657-1.811-1.006z"/><path fill="#617e95" d="M44.791 47.323h7v2h-7z" transform="rotate(-45.001 48.29 48.324)"/><path fill="#4c6d86" d="M46.818 48.768l-.205-.181-1.504 1.504 1.414 1.414 1.516-1.516z"/><path fill="#024665" d="M13.885 52.862a2.99 2.99 0 0 1-2.122-.877 3.004 3.004 0 0 1 0-4.242l16.566-16.566a.999.999 0 1 1 1.414 1.414L13.178 49.157a.999.999 0 1 0 1.414 1.414l16.566-16.565a.999.999 0 1 1 1.414 1.414L16.006 51.985a2.99 2.99 0 0 1-2.121.877zM34.694 32.884a.999.999 0 0 1-.707-1.707l8.89-8.89a.999.999 0 1 1 1.414 1.414l-8.89 8.89a1 1 0 0 1-.707.293z"/><path fill="#024665" d="M48.769 19.93l.471-.472a.5.5 0 0 0 0-.708l-.001-.001h.001l1.415-1.414a.997.997 0 0 0 0-1.414l-2.829-2.828a.999.999 0 0 0-1.414 0l-1.414 1.414a.514.514 0 0 0-.707 0l-.471.471a24.757 24.757 0 0 0-13.227-4.946.5.5 0 0 0-.287.931 62.7 62.7 0 0 1 10.137 7.393l-.394.395a.5.5 0 0 0 .001.707l-8.89 8.89a.999.999 0 1 0 1.414 1.414l8.89-8.89 2.828 2.828a.498.498 0 0 0 .708 0l.394-.394a62.715 62.715 0 0 1 7.393 10.136.5.5 0 0 0 .931-.286 24.795 24.795 0 0 0-4.949-13.226zm-2.357-4.007l.707-.707 1.414 1.414-.707.707-1.414-1.414zm-13.647-4.629a23.764 23.764 0 0 1 10.331 4.409l-1.952 1.953a63.894 63.894 0 0 0-8.379-6.362zm8.344 7.811l3.535-3.536 3.536 3.536-3.536 3.535-3.535-3.535zm4.984 3.5l1.953-1.953a23.757 23.757 0 0 1 4.408 10.331 63.747 63.747 0 0 0-6.361-8.378z"/><circle cx="25.467" cy="24.072" r=".5" fill="#024665" transform="rotate(-45.001 25.467 24.072)"/><circle cx="24.053" cy="25.486" r=".5" fill="#024665" transform="rotate(-45.001 24.053 25.487)"/><path fill="#024665" d="M53.216 47.578l-2.829-2.828a.5.5 0 0 0-.707 0l-.354.354-20.323-20.325.707-.707a.5.5 0 0 0-.11-.791l-1.693-.941 2.865-2.864a.997.997 0 0 0 0-1.414l-5.35-5.351a8.948 8.948 0 0 0-8.387-2.405l-4.872 1.124a1 1 0 0 0-.75.75l-1.124 4.872a8.944 8.944 0 0 0 2.405 8.387l5.35 5.351a1 1 0 0 0 1.414 0l2.864-2.865.941 1.695a.5.5 0 0 0 .791.111l.707-.708 20.324 20.324-.354.354a.5.5 0 0 0 0 .707l1.413 1.413a.003.003 0 0 1 .001.002l1.415 1.414c.472.473 1.1.732 1.768.732s1.296-.26 1.768-.732l2.122-2.121a2.507 2.507 0 0 0-.002-3.538zM18.75 28.669l-4.643-4.644a6.96 6.96 0 0 1-1.871-6.523l.983-4.263 4.263-.983a6.946 6.946 0 0 1 6.523 1.87l4.643 4.644-2.562 2.561-2.852-1.584a.5.5 0 0 0-.596.084l-2.829 2.828a.5.5 0 0 0-.083.597l1.584 2.852-2.56 2.561zm5.065-.115l-3.031-5.455 2.295-2.295 5.455 3.03-.945.945-2.826 2.826-.003.002-.002.003-.943.944zm22.683 19.377L26.174 27.608l1.414-1.414 20.324 20.324-1.414 1.413c0 .001 0 .001 0 0zm2.829-1.413s0-.001 0 0c0-.001 0-.001 0 0l.707-.707.707.707-4.242 4.243-.707-.708 3.535-3.535zm3.182 3.889l-2.122 2.121c-.566.566-1.555.566-2.121 0l-1.061-1.061 4.242-4.243 1.061 1.061c.586.585.586 1.537.001 2.122z"/></svg>