<svg width="326" height="283" viewBox="0 0 326 283" fill="none" xmlns="http://www.w3.org/2000/svg">
<g filter="url(#filter0_d_239_444)">
<path d="M145.584 136.043C168.837 132.733 185.055 111.597 181.808 88.8352C178.562 66.0734 157.079 50.3048 133.826 53.6151C110.573 56.9254 94.3544 78.061 97.6012 100.823C100.848 123.585 122.33 139.353 145.584 136.043Z" fill="#DC952D"/>
<path d="M149.323 135.647C172.576 132.337 188.794 111.202 185.547 88.4398C182.301 65.678 160.818 49.9094 137.565 53.2197C114.312 56.53 98.0934 77.6656 101.34 100.427C104.587 123.189 126.069 138.958 149.323 135.647Z" fill="#FCC84E"/>
<path d="M101.242 98.98C119.318 84.1074 137.394 69.2567 155.492 54.384C158.087 55.1529 161.165 56.3173 164.442 58.0967C166.333 59.1292 167.982 60.2057 169.411 61.2602L106.234 114.16C106.234 114.16 101.594 109.064 101.242 98.98Z" fill="#FEF04F"/>
<path d="M120.461 129.582C141.22 112.469 161.979 95.3333 182.715 78.2198C183.595 80.3508 184.453 82.9211 185.068 85.8649C185.376 87.3807 185.596 88.8306 185.75 90.1707C168.004 105.021 150.258 119.894 132.512 134.745C131.148 134.415 129.653 133.954 128.092 133.383C125.035 132.24 122.506 130.878 120.461 129.582Z" fill="#F59E1B"/>
<path d="M143.771 126.594C161.405 126.594 175.7 112.313 175.7 94.6962C175.7 77.0793 161.405 62.798 143.771 62.798C126.136 62.798 111.841 77.0793 111.841 94.6962C111.841 112.313 126.136 126.594 143.771 126.594Z" fill="#D2753F"/>
<path d="M149.869 124.929C166.557 122.553 178.154 107.082 175.771 90.3744C173.388 73.6664 157.927 62.0478 141.239 64.4235C124.55 66.7992 112.953 82.2697 115.337 98.9777C117.72 115.686 133.181 127.304 149.869 124.929Z" fill="#FDAA40"/>
<path d="M143.595 81.3393C143.595 81.3393 146.41 82.1522 147.949 83.0968C149.488 84.0415 152.413 83.0748 151.753 80.2409C151.094 77.407 148.191 76.3525 146.366 76.001C144.54 75.6495 143.683 75.6495 143.683 75.6495L143.177 75.5397L142.671 72.0686C142.671 72.0686 141.704 71.2338 139.901 71.0581C138.097 70.8824 137.306 72.9474 137.306 72.9474L137.965 76.7699C137.965 76.7699 129.037 79.3182 130.379 87.4466C131.72 95.5749 139.637 95.2454 139.637 95.2454C139.637 95.2454 150.39 93.4659 151.511 99.9686C152.633 106.471 146.915 108.866 144.255 108.339C141.594 107.811 138.713 108.097 136.558 104.187C134.403 100.276 131.104 104.165 131.082 104.912C131.06 105.658 133.435 111.107 137.328 113.062C137.328 113.062 139.351 113.984 140.89 114.028C142.429 114.05 142.891 113.875 142.891 113.875L143.551 118.005C143.551 118.005 143.947 118.62 146.124 118.861C148.301 119.103 149.136 117.28 149.136 117.28L148.587 112.952C148.587 112.952 155.382 112.051 157.471 102.385C159.56 92.719 149.004 89.3578 144.936 89.5555C140.868 89.7752 136.206 91.0494 136.272 85.4035C136.294 84.5907 138.449 80.7901 143.595 81.3393Z" fill="#D2753F"/>
<path d="M145.706 81.1417C145.706 81.1417 148.521 81.9545 150.06 82.8991C151.599 83.8438 154.524 82.8772 153.864 80.0432C153.205 77.2093 150.302 76.1548 148.477 75.8033C146.652 75.4518 145.794 75.4518 145.794 75.4518L145.288 75.342L144.782 71.871C144.782 71.871 143.815 71.0362 142.012 70.8604C140.208 70.6847 139.417 72.7497 139.417 72.7497L140.076 76.5722C140.076 76.5722 131.148 79.1206 132.49 87.2489C133.831 95.3772 141.748 95.0477 141.748 95.0477C141.748 95.0477 152.501 93.2682 153.622 99.7709C154.744 106.274 149.026 108.668 146.366 108.141C143.705 107.614 140.824 107.899 138.669 103.989C136.514 100.078 133.216 103.967 133.194 104.714C133.172 105.461 135.546 110.909 139.439 112.864C139.439 112.864 141.462 113.787 143.001 113.831C144.54 113.853 145.002 113.677 145.002 113.677L145.662 117.807C145.662 117.807 146.058 118.422 148.235 118.664C150.412 118.905 151.247 117.082 151.247 117.082L150.698 112.754C150.698 112.754 157.493 111.854 159.582 102.187C161.693 92.5433 151.116 89.1601 147.047 89.3579C142.979 89.5775 138.317 90.8517 138.383 85.2058C138.383 84.393 140.538 80.5924 145.706 81.1417Z" fill="#FECB51"/>
<path d="M172.6 241.226L174.161 248.673L174.601 252.518L182.166 252.034C182.166 252.034 181.396 242.28 180.627 239.996C179.857 237.711 172.6 241.226 172.6 241.226Z" fill="#FEABB5"/>
<path d="M229.159 231.406L235.404 232.504L235.316 240.479L224.783 239.271L226.74 232.504L227.026 230.945L229.159 231.406Z" fill="#FEABB5"/>
<path d="M173.832 56.4271C174.029 59.261 174.249 62.095 174.447 64.9289C175.041 65.8516 175.635 66.7743 176.25 67.6969C180.451 67.4772 184.651 67.2795 188.829 67.0598L188.587 66.4008L184.277 54.406L173.832 56.4271Z" fill="#FEABB5"/>
<path d="M175.151 65.5441C175.151 65.5441 176.976 65.8077 179.615 66.269C182.254 66.7304 184.871 66.6425 185.772 66.4667C186.674 66.291 188.521 66.0054 188.521 66.0054L188.851 67.0599C188.851 67.0599 179.197 67.5212 178.955 67.5212C178.713 67.5212 176.404 66.6864 176.404 66.6864L175.151 65.5441Z" fill="#FE8D90"/>
<path d="M174.469 64.9289C174.403 65.0827 174.337 65.2804 174.359 65.544C174.425 66.247 175.173 66.7083 175.393 66.8402C175.481 66.9061 176.426 68.1143 178.317 70.5089C178.317 70.5089 180.143 72.8375 182.056 77.2093C183.881 81.3833 186.058 91.313 185.354 104.143C185.178 107.438 184.189 120.377 178.823 132.921C177.856 135.184 176.998 136.92 176.426 138.04C173.568 143.73 167.52 154.077 167.52 154.077C167.52 154.077 168.906 157.482 182.43 156.032C195.954 154.582 198.614 151.199 198.614 151.199L198.746 150.672L197.229 108.448L189.181 66.4887C187.597 66.9061 185.2 67.3454 182.276 67.1257C178.735 66.8621 176.052 65.7198 174.469 64.9289Z" fill="white"/>
<path d="M165.629 139.534C165.629 139.534 138.757 181.823 137.592 191.687C136.426 201.551 140.516 203.967 142.276 205.791C144.035 207.614 172.468 243.664 172.468 243.664C172.468 243.664 177.042 244.477 180.363 243.664C183.683 242.852 184.167 241.138 184.167 241.138C184.167 241.138 161.869 200.65 161.341 195.07C160.747 189.029 175.217 167.719 175.217 167.719C175.217 167.719 183.837 211.371 184.409 214.095C184.98 216.819 225.222 243.247 225.222 243.247C225.222 243.247 227.861 241.643 230.39 237.096C232.919 232.57 232.919 229.033 232.919 229.033L200.769 205.703C200.769 205.703 205.453 172.684 205.453 160.382C205.453 160.382 205.255 155.659 204.97 153.945C204.684 152.232 189.005 141.555 178.186 139.051C167.366 136.524 165.629 139.534 165.629 139.534Z" fill="#4F2926"/>
<path d="M180.231 25.9129C179.945 25.4736 171.434 32.4156 168.62 40.1485C165.805 47.8814 167.586 53.8568 171.72 55.5923C175.854 57.3278 180.692 56.1196 182.232 55.4166C183.793 54.7136 187.751 52.7364 187.927 52.2311C188.103 51.7039 189.642 52.8023 191.995 51.0668C194.348 49.3313 194.238 47.3981 192.677 45.2671L191.753 44.0369C191.753 44.0369 194.172 38.3251 194.304 36.3479C194.436 34.3927 193.139 33.8216 191.709 33.3383C190.324 32.855 184.123 32.152 180.231 25.9129Z" fill="#FEABB5"/>
<path d="M179.197 25.4735C179.197 25.4735 178.845 26.4402 179.769 28.0219C180.692 29.6036 183.507 32.108 185.97 32.9428C188.433 33.7776 192.435 33.8216 192.589 35.2056C192.743 36.5896 192.083 39.5553 191.863 40.2803C191.622 41.0052 191.863 43.3998 191.863 43.3998C191.863 43.3998 194.832 38.1274 194.832 37.5123C194.832 36.8971 195.492 34.2829 193.337 33.0087C191.182 31.7346 187.224 31.3172 187.07 31.2293C186.894 31.1634 179.197 25.4735 179.197 25.4735Z" fill="#FE8D90"/>
<path d="M181.946 13.7863C181.946 13.7863 178.076 16.796 177.724 21.8048C177.394 26.8136 183.617 30.8778 185.86 31.7346C188.103 32.6133 191.929 33.4261 191.929 33.4261C191.929 33.4261 193.953 34.4806 193.623 36.9191C193.293 39.3576 191.336 43.9051 191.336 43.9051C191.336 43.9051 194.216 46.3216 193.073 49.1995C191.929 52.0774 188.521 52.1652 187.773 51.9016C187.773 51.9016 185.662 53.4394 184.959 53.8129C184.959 53.8129 186.322 55.9878 193.513 53.9007C200.704 51.8137 203.672 45.1134 204.42 43.0264C205.168 40.9394 205.805 34.5685 202.177 30.9657C198.548 27.3628 196.064 28.0439 196.481 22.6836C196.899 17.3232 192.765 17.3672 192.523 17.3672C192.281 17.3672 187.114 18.3558 187.114 18.3558C187.114 18.3558 185.222 17.1914 184.607 15.3021C183.991 13.4129 182.87 12.8636 182.87 12.8636L181.946 13.7863Z" fill="#4F2926"/>
<path d="M193.051 145.18C193.051 145.18 192.281 155.725 196.217 161.327C200.154 166.951 204.684 166.709 204.684 166.709C204.684 166.709 206.069 154.868 204.134 151.638C202.199 148.409 192.655 144.938 192.655 144.938L193.051 145.18Z" stroke="white" stroke-width="3" stroke-miterlimit="10"/>
<path d="M189.159 66.4887C189.159 66.4887 197.141 64.0282 203.782 70.8384C210.401 77.6267 217.856 88.0617 221.066 104.45C224.277 120.839 221.308 134.767 217.614 140.522C213.898 146.278 209.522 150.804 206.157 153.154C202.793 155.505 202.793 155.505 202.793 155.505C202.793 155.505 197.493 151.155 196.306 142.434C195.118 133.712 197.229 129.362 197.229 129.362L188.851 67.0598C188.851 67.0598 188.763 66.4447 189.159 66.4887Z" fill="#5670C4"/>
<path d="M190.61 123.101C191.511 122.816 199.494 121.19 204.816 115.017C210.137 108.844 211.72 93.2902 210.313 85.5134C208.906 77.7366 206.157 72.3323 202.397 69.6522C198.636 66.972 190.61 123.101 190.61 123.101Z" fill="#C92615"/>
<path d="M159.538 131.449C159.406 131.537 156.173 133.668 154.744 133.449C153.315 133.229 148.895 130.703 146.872 131.625C144.849 132.548 144.563 134.855 146.454 136.063C148.345 137.293 149.708 137.491 149.708 137.491C149.708 137.491 144.98 140.061 144.189 139.841C143.397 139.622 142.386 138.787 141.528 139.182C140.692 139.578 138.955 146.234 144.013 148.936C149.071 151.638 153.535 152.122 157.339 150.848C161.121 149.573 164.838 148.497 166.817 146.893C168.796 145.29 168.972 144.411 168.972 144.411L168.84 143.488L159.538 131.449Z" fill="#FEABB5"/>
<path d="M164.332 135.645C164.244 135.887 165.497 144.037 161.473 146.652C157.471 149.266 152.765 150.496 150.918 150.584C149.071 150.672 145.376 149.661 145.376 149.661C145.376 149.661 151.05 152.627 157.515 150.716C157.515 150.716 162.88 149.398 166.113 147.377C169.345 145.355 169.345 143.444 169.345 143.444L164.332 135.645Z" fill="#FE8D90"/>
<path d="M192.435 66.2251C192.435 66.2251 186.498 68.7075 185.728 79.5599C184.981 90.4123 185.486 101.792 183.969 105.79C182.452 109.789 158.768 129.143 158.768 129.143C158.768 129.143 158.856 134.898 164.002 139.863C169.148 144.828 168.972 143.95 168.972 143.95C168.972 143.95 195.866 129.494 197.999 127.517C204.112 121.937 204.486 114.27 205.959 107.899C207.63 100.716 209.324 88.7867 206.443 73.6943C204.97 71.8929 203.562 70.5748 202.485 69.6741C200.704 68.2022 199.12 67.2356 197.559 66.5326C195.426 65.588 194.129 65.4562 193.029 65.8955C192.765 66.0274 192.567 66.1372 192.435 66.2251Z" fill="#F0512A"/>
<path d="M177.504 30.4384C177.504 30.4384 180.34 31.9762 180.978 33.0307C181.616 34.0852 182.188 34.898 182.078 35.6669C181.968 36.4578 180.78 39.4455 180.165 40.3682C179.549 41.2908 178.119 42.8945 177.768 43.1801C177.438 43.4657 177.438 43.4657 177.438 43.4657M185.882 37.9077C185.882 37.9077 187.883 37.6441 188.895 38.5448C189.906 39.4455 190.456 41.4886 190.456 41.4886" stroke="#4F2926" stroke-miterlimit="10"/>
<path d="M177.828 37.1876C178.45 35.9248 178.132 34.4972 177.119 33.9991C176.105 33.5009 174.78 34.1208 174.158 35.3836C173.536 36.6464 173.853 38.074 174.866 38.5722C175.88 39.0703 177.206 38.4504 177.828 37.1876Z" fill="#4F2926"/>
<path d="M188.332 43.7925C188.954 42.5296 188.636 41.1021 187.623 40.6039C186.61 40.1058 185.284 40.7257 184.662 41.9885C184.04 43.2513 184.357 44.6789 185.371 45.177C186.384 45.6752 187.71 45.0553 188.332 43.7925Z" fill="#4F2926"/>
<path d="M171.479 45.9262C173.009 45.9262 174.249 44.6771 174.249 43.1362C174.249 41.5953 173.009 40.3462 171.479 40.3462C169.948 40.3462 168.708 41.5953 168.708 43.1362C168.708 44.6771 169.948 45.9262 171.479 45.9262Z" fill="#FE8D90"/>
<path d="M183.485 52.0774C185.015 52.0774 186.256 50.8282 186.256 49.2874C186.256 47.7465 185.015 46.4974 183.485 46.4974C181.955 46.4974 180.714 47.7465 180.714 49.2874C180.714 50.8282 181.955 52.0774 183.485 52.0774Z" fill="#FE8D90"/>
<path d="M173.788 45.9042C173.788 45.9042 174.711 48.167 175.723 48.9579C176.734 49.7487 178.493 49.8586 178.493 49.8586" stroke="#4F2926" stroke-miterlimit="10"/>
<path d="M234.326 231.56C233.755 231.604 234.128 239.424 234.128 239.424L230.236 239.534C230.236 239.534 229.752 240.743 230.148 242.149C230.544 243.555 233.359 247.685 233.359 247.685C233.359 247.685 233.271 259.46 233.843 260.668C234.414 261.876 237.053 258.845 238.614 255.439C240.176 252.012 243.144 240.084 243.738 237.469C244.332 234.855 244.332 233.954 244.332 233.954C244.332 233.954 244.618 230.593 234.326 231.56ZM174.029 247.179C174.029 247.179 175.701 251.331 177.24 251.331C178.779 251.331 181.836 248.08 181.836 248.08C181.836 248.08 183.221 247.619 183.441 248.146C183.661 248.673 183.881 260.163 183.881 260.163C183.881 260.163 172.05 259.548 166.641 259.482C161.231 259.416 158.02 258.208 157.581 257.285C157.141 256.384 157.801 255.33 158.526 255.33C159.252 255.33 165.387 254.385 166.663 254.012C167.938 253.638 173.414 246.872 173.414 246.872L174.029 247.179Z" fill="#F0512A"/>
<path d="M173.832 56.3173C173.832 56.3173 177.152 56.1415 178.845 55.5923C180.539 55.0431 182.056 54.2303 182.056 54.2303C182.056 54.2303 181.726 56.537 178.449 57.6574C175.173 58.7778 174.051 58.7119 174.051 58.7119L173.832 56.4271V56.3173Z" fill="#FE8D90"/>
<path d="M189.972 45.8383C189.972 45.8383 191.577 46.9367 191.401 48.167C191.226 49.3972 190.544 49.9025 189.928 49.529C189.312 49.1556 188.785 48.2109 189.071 47.8814C189.356 47.5519 190.39 47.0246 190.5 47.7496C190.588 48.4526 189.95 48.3647 189.95 48.3647" stroke="#FE8D90" stroke-miterlimit="10"/>
<path d="M171.193 251.705C171.642 251.705 172.006 251.41 172.006 251.046C172.006 250.682 171.642 250.387 171.193 250.387C170.743 250.387 170.379 250.682 170.379 251.046C170.379 251.41 170.743 251.705 171.193 251.705Z" fill="#F9ECDC"/>
<path d="M169.895 253.221C170.284 253.221 170.599 252.965 170.599 252.649C170.599 252.334 170.284 252.078 169.895 252.078C169.507 252.078 169.192 252.334 169.192 252.649C169.192 252.965 169.507 253.221 169.895 253.221Z" fill="#F9ECDC"/>
<path d="M168.444 254.517C168.796 254.517 169.082 254.261 169.082 253.946C169.082 253.63 168.796 253.374 168.444 253.374C168.092 253.374 167.806 253.63 167.806 253.946C167.806 254.261 168.092 254.517 168.444 254.517Z" fill="#F9ECDC"/>
<path d="M232.497 241.701C232.651 241.279 232.499 240.836 232.156 240.711C231.814 240.586 231.412 240.827 231.257 241.249C231.103 241.67 231.256 242.113 231.598 242.238C231.94 242.363 232.343 242.123 232.497 241.701Z" fill="#F9ECDC"/>
<path d="M233.462 243.439C233.595 243.074 233.463 242.691 233.166 242.582C232.87 242.474 232.521 242.682 232.388 243.047C232.254 243.411 232.387 243.795 232.683 243.903C232.98 244.011 233.328 243.803 233.462 243.439Z" fill="#F9ECDC"/>
<path d="M234.188 245.238C234.309 244.908 234.167 244.552 233.87 244.444C233.574 244.336 233.235 244.516 233.114 244.846C232.993 245.177 233.136 245.532 233.433 245.641C233.729 245.749 234.068 245.569 234.188 245.238Z" fill="#F9ECDC"/>
<path d="M20.2082 222.619C20.2082 222.619 30.1037 228.792 42.5942 223.629C42.5942 223.629 47.5639 221.344 51.5881 214.93C55.6123 208.515 55.5024 208.537 57.8114 209.679C60.0983 210.821 60.0983 232.329 60.0983 232.329L63.2649 232.526C63.2649 232.526 63.2649 213.699 60.4942 207.966C60.4942 207.966 59.7245 203.198 57.8114 202.803C55.8982 202.408 52.0719 202.144 45.189 205.198C38.3061 208.251 37.5364 203.857 28.4545 207.394C19.3725 210.931 16.03 216.27 15.0625 220.004C14.0949 223.739 16.3159 227.847 16.3159 227.847C16.3159 227.847 16.0081 225.145 20.2082 222.619Z" fill="#529A74"/>
<path d="M17.0415 222.663C17.3274 221.806 19.6144 219.697 33.9739 217.786C48.3115 215.874 52.6216 207.087 54.7326 206.801" stroke="#328A5A" stroke-width="3" stroke-miterlimit="10"/>
<path d="M32.7425 178.33C33.5122 178.198 34.9415 183.778 43.2538 188.172C51.5661 192.566 55.7882 193.049 58.361 192.478C60.9339 191.907 62.7591 189.314 63.6167 189.71C64.4743 190.105 64.4743 231.56 64.4743 231.56H67.5309C67.5309 231.56 67.0471 188.853 66.6733 187.996C66.2995 187.139 65.046 184.086 57.4814 179.121C49.9168 174.156 44.4633 168.796 34.9195 171.102C34.9195 171.102 30.7194 172.64 28.6083 175.694C26.4973 178.748 27.7507 180.659 27.7507 180.659C27.7507 180.659 27.3769 179.187 32.7425 178.33Z" fill="#529A74"/>
<path d="M30.9175 176.243C30.9175 176.243 42.1105 174.617 49.4772 180.066C56.8439 185.514 60.4723 187.711 60.4723 187.711" stroke="#328A5A" stroke-width="3" stroke-miterlimit="10"/>
<path d="M69.4221 231.933C68.5645 230.351 69.0703 180.197 69.4221 178.682C69.774 177.166 70.0598 174.947 76.8768 172.596C83.6937 170.246 99.5486 156.12 106.146 156.911C112.743 157.702 119.846 164.138 119.714 166.291C119.56 168.444 115.689 167.588 112.259 167.939C108.806 168.291 106.871 172.948 102.363 179.121C97.8334 185.294 89.9609 187.579 81.8466 184.855C73.7322 182.131 72.6547 180.549 72.6547 180.549L71.2913 232.219L69.4221 231.933Z" fill="#328A5A"/>
<path d="M74.0621 232.329C73.5783 231.186 77.6904 198.124 75.4914 186.371C73.2924 174.617 74.0621 171.476 69.0923 169.565C64.1225 167.653 53.3034 160.008 51.0164 152.363C48.7294 144.718 48.4435 140.413 48.1577 139.951C47.8718 139.49 47.388 138.04 45.101 140.325C42.814 142.609 41.8465 139.38 45.189 134.876C48.5315 130.373 51.874 129.143 57.7234 133.053C63.5728 136.963 73.2264 147.86 75.4255 153.506C77.6245 159.152 75.2276 167.741 75.4255 170.224C75.6234 172.706 79.0538 186.854 79.7355 196.981C80.3952 207.109 77.5365 232.241 77.5365 232.241L74.0621 232.329Z" fill="#529A74"/>
<path d="M73.7103 179.912C73.7103 179.912 87.6961 182.57 92.292 180.351C96.888 178.132 103.903 162.293 108.213 161.436C112.523 160.58 119.692 166.665 119.692 166.665C119.692 166.665 119.846 168.093 115.162 167.961C110.478 167.829 109.576 168.532 106.41 173.189C103.243 177.847 100.45 183.515 93.5675 185.074C86.6845 186.656 82.1546 185.228 78.5702 183.778C74.9858 182.35 72.6108 180.549 72.6108 180.549L73.7103 179.912Z" fill="#529A74"/>
<path d="M50.8186 135.25C50.8186 135.25 64.2106 149.486 67.1793 156.559C70.148 163.633 71.3794 167.741 71.3794 167.741" stroke="#328A5A" stroke-width="3" stroke-miterlimit="10"/>
<path d="M43.166 140.017C43.254 138.875 47.4761 129.692 54.359 135.536C61.2419 141.379 61.154 146.915 66.4976 151.682C71.8632 156.449 73.7763 159.327 73.4905 162.864C73.2046 166.401 73.6884 170.795 74.9198 172.794C76.1733 174.793 76.4591 174.705 76.1733 174.793C75.8874 174.881 75.1617 169.718 75.1617 169.718C75.1617 169.718 78.3283 157.394 74.8758 152.1C71.4234 146.805 61.5278 132.833 53.7213 130.966C45.8928 129.099 43.166 140.017 43.166 140.017ZM123.804 209.35C123.804 209.35 113.908 215.149 101.418 210.294C101.418 210.294 96.4482 208.141 92.424 202.1C89.7852 198.146 88.9276 196.784 87.982 196.608C87.982 196.608 87.1464 196.52 86.2008 197.135C82.6384 199.42 83.54 225.409 83.8698 232.878C82.9902 232.988 82.1106 233.097 81.231 233.207C80.4394 226.573 80.0875 218.379 81.121 209.108C81.6708 204.099 82.5504 199.552 83.54 195.509C83.54 195.509 84.3096 191.006 86.2228 190.654C88.1359 190.303 91.9622 190.017 98.8451 192.895C105.728 195.773 106.498 191.643 115.58 194.96C124.662 198.299 128.004 203.33 128.972 206.845C129.917 210.36 127.718 214.227 127.718 214.227C127.718 214.227 128.004 211.722 123.804 209.35Z" fill="#328A5A"/>
<path d="M126.443 208.339C125.893 207.241 123.254 204.89 110.917 205.439C98.581 205.988 91.874 195.004 90.0488 195.07" stroke="#529A74" stroke-width="3" stroke-miterlimit="10"/>
<path d="M87.454 270.07H53.5232C52.1598 270.07 51.0603 268.972 51.0603 267.61V233.998C51.0603 232.636 52.1598 231.538 53.5232 231.538H87.454C88.8174 231.538 89.9169 232.636 89.9169 233.998V267.61C89.9389 268.95 88.8174 270.07 87.454 270.07Z" fill="#FEABB5"/>
<path d="M58.7349 269.631C58.8888 269.28 64.4083 259.086 71.4232 252.715C78.46 246.344 89.9389 244.697 89.9389 244.697L90.0928 267.127C90.0928 267.127 89.8729 269.983 86.0027 270.136L58.7349 269.631Z" fill="#FE8D90"/>
<path d="M102.056 42.6968H43.8696C41.5386 42.6968 39.6255 40.8075 39.6255 38.4569V28.7908C39.6255 26.4621 41.5166 24.5509 43.8696 24.5509H102.056C104.387 24.5509 106.3 26.4402 106.3 28.7908V38.4569C106.3 40.8075 104.387 42.6968 102.056 42.6968Z" fill="#F1CFAA"/>
<path d="M99.9666 32.3277H59.9884C59.7026 32.3277 59.4827 32.108 59.4827 31.8224V29.7135C59.4827 29.4279 59.7026 29.2082 59.9884 29.2082H99.9666C100.252 29.2082 100.472 29.4279 100.472 29.7135V31.8224C100.472 32.108 100.23 32.3277 99.9666 32.3277ZM100.274 38.5228H60.3183C60.0324 38.5228 59.8125 38.3031 59.8125 38.0175V35.9086C59.8125 35.623 60.0324 35.4033 60.3183 35.4033H100.296C100.582 35.4033 100.802 35.623 100.802 35.9086V38.0175C100.78 38.3031 100.56 38.5228 100.274 38.5228Z" fill="#F9ECDC"/>
<path d="M50.7745 40.1704C54.3693 40.1704 57.2836 37.446 57.2836 34.0852C57.2836 30.7244 54.3693 27.9999 50.7745 27.9999C47.1796 27.9999 44.2654 30.7244 44.2654 34.0852C44.2654 37.446 47.1796 40.1704 50.7745 40.1704Z" fill="#FAEFE5"/>
<path d="M50.7744 27.9999V34.5026L44.3093 33.6019C44.3313 33.5799 44.5732 28.2855 50.7744 27.9999Z" fill="#E6B78B"/>
<path d="M25.9915 81.8666C25.9915 81.8666 30.7633 79.8236 32.8304 79.9993C34.8975 80.1751 36.041 82.1303 37.9101 82.3719C39.7793 82.6355 43.2977 79.8236 46.2884 80.241C49.301 80.6584 49.301 82.284 51.566 82.3719C53.853 82.4598 55.5023 79.5599 59.2186 80.0652C62.9569 80.5705 60.8679 82.0204 64.2983 82.0204C67.7288 82.0204 68.2346 80.241 70.9174 80.4826C73.6002 80.7243 74.018 81.2515 74.018 81.2515M27.3329 84.7445C30.3455 83.6461 32.3026 83.9756 34.0618 84.415C35.8211 84.8324 35.8211 87.4686 38.8337 86.458C41.8464 85.4475 44.1113 83.734 45.5627 83.9976C47.0141 84.2612 49.389 86.1285 51.3681 86.2164C53.3252 86.3043 56.3379 84.4369 58.0971 84.4369C59.8563 84.4369 62.2312 86.1285 64.6282 85.8869C67.0031 85.6232 69.0702 83.9317 70.5215 83.9317C71.9729 83.9317 73.7321 84.7884 73.7321 84.7884" stroke="#E6B78B" stroke-width="4" stroke-miterlimit="10"/>
<path d="M244.398 189.929H229.906C228.455 189.929 227.268 188.743 227.268 187.293V169.477C227.268 168.027 228.455 166.841 229.906 166.841H244.398C245.849 166.841 247.037 168.027 247.037 169.477V187.293C247.037 188.743 245.849 189.929 244.398 189.929Z" fill="#F1CFAA"/>
<path d="M237.273 184.24C232.787 180.9 230.368 177.166 231.314 174.947C231.6 174.288 232.435 173.146 233.777 172.926C235.514 172.64 236.833 174.068 236.965 174.222C237.207 173.936 238.219 172.838 239.846 172.706C240.132 172.684 241.781 172.552 242.749 173.651C242.749 173.651 243.21 174.178 243.364 174.991C243.716 176.748 241.297 180.329 237.273 184.24Z" fill="#F0512A"/>
<path d="M263.156 131.054C263.156 131.054 267.927 129.011 269.994 129.187C272.062 129.362 273.205 131.318 275.074 131.559C276.943 131.823 280.462 129.011 283.452 129.428C286.465 129.846 286.465 131.471 288.73 131.559C291.017 131.647 292.666 128.747 296.383 129.253C300.099 129.758 298.032 131.208 301.462 131.208C304.893 131.208 305.399 129.428 308.081 129.67C310.764 129.934 311.182 130.439 311.182 130.439M264.497 133.954C267.51 132.855 269.467 133.185 271.226 133.624C272.985 134.042 272.985 136.678 275.998 135.667C279.01 134.657 281.275 132.943 282.727 133.207C284.178 133.471 286.553 135.338 288.532 135.426C290.511 135.514 293.502 133.646 295.261 133.646C297.02 133.646 299.395 135.338 301.792 135.096C304.189 134.855 306.234 133.141 307.686 133.141C309.137 133.141 310.896 133.998 310.896 133.998" stroke="#E6B78B" stroke-width="4" stroke-miterlimit="10"/>
<path d="M260.429 137.205L256.58 135.294L252.82 137.381L253.436 133.141L250.291 130.219L254.535 129.494L256.339 125.584L258.34 129.384L262.606 129.912L259.593 132.987L260.429 137.205Z" fill="#E6B78B"/>
<path d="M86.5305 136.414C91.437 136.414 95.4145 132.441 95.4145 127.539C95.4145 122.637 91.437 118.664 86.5305 118.664C81.624 118.664 77.6465 122.637 77.6465 127.539C77.6465 132.441 81.624 136.414 86.5305 136.414Z" fill="#F1CFAA"/>
<path d="M91.2145 130.659L87.7181 130.153L85.2992 132.724L84.7054 129.253L81.4949 127.759L84.6395 126.111L85.0573 122.618L87.5861 125.079L91.0606 124.398L89.4993 127.561L91.2145 130.659Z" fill="#FDAA40"/>
<path d="M282.419 97.8157H241.781C239.186 97.8157 237.097 95.7287 237.097 93.1364V51.1107C237.097 48.5185 239.186 46.4315 241.781 46.4315H282.419C285.014 46.4315 287.103 48.5185 287.103 51.1107V93.1145C287.103 95.7067 285.014 97.8157 282.419 97.8157Z" fill="#F1CFAA"/>
<path d="M260.055 56.8226C260.275 56.8445 260.011 51.616 260.011 51.616L265.047 51.6819L265.025 57.1301C265.025 57.1301 268.389 57.6354 269.577 58.6459C270.764 59.6785 271.314 60.3155 271.314 60.3155L266.982 64.7971C266.982 64.7971 263.441 61.6996 259.879 64.16C259.879 64.16 258.12 67.8288 261.374 68.8393C261.374 68.8393 264.893 68.7514 267.092 69.5423C269.291 70.3332 273.997 73.7163 272.479 79.9773C270.962 86.2383 265.64 87.5564 265.64 87.5564L265.135 87.6663L265.398 92.1698C265.398 92.1698 260.649 92.4334 260.429 92.3236C260.209 92.2138 260.341 87.2928 260.341 87.2928C260.341 87.2928 256.69 86.8535 253.722 84.393L252.71 83.0749L257.372 78.5274C257.372 78.5274 259.747 81.4492 263.727 81.2076C267.707 80.9439 266.652 75.9132 264.695 75.6495C262.738 75.3859 256.404 75.7813 253.458 69.5423C250.467 63.3252 256.294 56.6248 260.055 56.8226Z" fill="#DC952D"/>
</g>
<defs>
<filter id="filter0_d_239_444" x="-4" y="0" width="334" height="291" filterUnits="userSpaceOnUse" color-interpolation-filters="sRGB">
<feFlood flood-opacity="0" result="BackgroundImageFix"/>
<feColorMatrix in="SourceAlpha" type="matrix" values="0 0 0 0 0 0 0 0 0 0 0 0 0 0 0 0 0 0 127 0" result="hardAlpha"/>
<feOffset dy="4"/>
<feGaussianBlur stdDeviation="2"/>
<feComposite in2="hardAlpha" operator="out"/>
<feColorMatrix type="matrix" values="0 0 0 0 0 0 0 0 0 0 0 0 0 0 0 0 0 0 0.25 0"/>
<feBlend mode="normal" in2="BackgroundImageFix" result="effect1_dropShadow_239_444"/>
<feBlend mode="normal" in="SourceGraphic" in2="effect1_dropShadow_239_444" result="shape"/>
</filter>
</defs>
</svg>
