<svg width="136" height="135" viewBox="0 0 136 135" fill="none" xmlns="http://www.w3.org/2000/svg">
<g filter="url(#filter0_d_288_857)">
<circle cx="68" cy="67" r="67" fill="#F4F4F4"/>
</g>
<path d="M67.5 13C52.7856 13.0165 38.6785 18.8692 28.2738 29.2738C17.8692 39.6785 12.0165 53.7856 12 68.5C12.025 83.2118 17.8804 97.3139 28.2832 107.717C38.6861 118.12 52.7882 123.975 67.5 124C82.2195 124 96.3362 118.153 106.744 107.744C117.153 97.3362 123 83.2195 123 68.5C123 53.7805 117.153 39.6638 106.744 29.2556C96.3362 18.8473 82.2195 13 67.5 13ZM101.258 100.525C98.1405 94.2384 93.3284 88.948 87.3645 85.2507C81.4006 81.5533 74.5222 79.5962 67.5052 79.6C60.4882 79.6038 53.6119 81.5684 47.652 85.2722C41.6921 88.976 36.8858 94.2716 33.7754 100.562C25.4758 91.9549 20.851 80.4564 20.88 68.5C20.88 56.1356 25.7917 44.2776 34.5347 35.5347C43.2776 26.7917 55.1356 21.88 67.5 21.88C79.8644 21.88 91.7224 26.7917 100.465 35.5347C109.208 44.2776 114.12 56.1356 114.12 68.5C114.148 80.439 109.536 91.9218 101.258 100.525ZM67.5 35.2C63.5483 35.2 59.6854 36.3718 56.3997 38.5672C53.114 40.7627 50.5531 43.8831 49.0409 47.534C47.5286 51.1849 47.133 55.2022 47.9039 59.0779C48.6748 62.9536 50.5778 66.5137 53.372 69.308C56.1663 72.1022 59.7264 74.0052 63.6021 74.7761C67.4778 75.547 71.4951 75.1514 75.146 73.6391C78.7969 72.1269 81.9173 69.566 84.1128 66.2803C86.3082 62.9946 87.48 59.1317 87.48 55.18C87.48 52.5562 86.9632 49.9581 85.9591 47.534C84.955 45.1099 83.4833 42.9073 81.628 41.052C79.7727 39.1967 77.5701 37.725 75.146 36.7209C72.7219 35.7168 70.1238 35.2 67.5 35.2Z" fill="#407EA0"/>
<defs>
<filter id="filter0_d_288_857" x="0.5" y="0" width="135" height="135" filterUnits="userSpaceOnUse" color-interpolation-filters="sRGB">
<feFlood flood-opacity="0" result="BackgroundImageFix"/>
<feColorMatrix in="SourceAlpha" type="matrix" values="0 0 0 0 0 0 0 0 0 0 0 0 0 0 0 0 0 0 127 0" result="hardAlpha"/>
<feOffset dy="0.5"/>
<feGaussianBlur stdDeviation="0.25"/>
<feComposite in2="hardAlpha" operator="out"/>
<feColorMatrix type="matrix" values="0 0 0 0 0 0 0 0 0 0 0 0 0 0 0 0 0 0 0.25 0"/>
<feBlend mode="normal" in2="BackgroundImageFix" result="effect1_dropShadow_288_857"/>
<feBlend mode="normal" in="SourceGraphic" in2="effect1_dropShadow_288_857" result="shape"/>
</filter>
</defs>
</svg>
