<svg width="258" height="233" viewBox="0 0 258 233" fill="none" xmlns="http://www.w3.org/2000/svg">
<mask id="mask0_5_33" style="mask-type:alpha" maskUnits="userSpaceOnUse" x="61" y="0" width="196" height="225">
<path fill-rule="evenodd" clip-rule="evenodd" d="M61.3534 21.7294L231.504 0.837516L256.364 203.307L86.2136 224.199L61.3534 21.7294Z" fill="white"/>
</mask>
<g mask="url(#mask0_5_33)">
<path fill-rule="evenodd" clip-rule="evenodd" d="M235.279 121.419C238.717 124.064 241.201 128.192 241.797 133.045C242.732 140.659 238.752 147.669 232.574 150.315C235.767 152.719 238.076 156.525 238.625 160.998L238.687 161.505C239.522 168.302 236.067 174.583 230.628 177.095C234.184 179.54 236.784 183.625 237.38 188.478L237.56 189.944C238.603 198.438 233.14 206.159 225.425 207.106L147.77 216.641C147.77 216.641 126.973 219.259 122.454 214.73C119.531 211.8 114.483 209.588 111.288 208.393C109.545 207.743 108.352 207.388 108.352 207.388L84.5089 210.316L74.376 127.79C74.376 127.79 95.2384 123.849 107.21 115.529C109.415 114 111.315 112.323 112.732 110.497C121.846 98.7238 133.881 67.7098 134.18 52.1787C134.472 36.6489 129.279 26.6326 130.08 18.7909C130.873 10.9431 156.18 2.03006 169.023 42.0877C174.611 59.5124 175.358 74.1428 174.413 85.1125C174.199 87.5553 173.905 89.8151 173.567 91.8875L224.425 85.6429C227.787 85.23 231.063 85.9148 233.942 87.4416C239.193 90.2072 243.159 95.755 243.985 102.489C244.962 110.442 241.287 117.835 235.279 121.419Z" fill="#FEC997"/>
</g>
<path fill-rule="evenodd" clip-rule="evenodd" d="M107.145 115.779L111.281 208.969C109.541 208.315 108.351 207.958 108.351 207.958L84.5669 210.879L74.3978 128.059C74.3978 128.059 95.2078 124.119 107.145 115.779Z" fill="#F1AF6F"/>
<mask id="mask1_5_33" style="mask-type:alpha" maskUnits="userSpaceOnUse" x="12" y="109" width="95" height="123">
<path fill-rule="evenodd" clip-rule="evenodd" d="M12.3696 118.978L92.6796 109.117L106.436 221.157L26.1265 231.018L12.3696 118.978Z" fill="white"/>
</mask>
<g mask="url(#mask1_5_33)">
<path fill-rule="evenodd" clip-rule="evenodd" d="M93.6658 117.149L105.45 213.125C105.995 217.564 102.854 221.597 98.4288 222.141L34.1363 230.035C29.1632 230.646 24.8396 226.613 25.0924 221.59L27.4758 173.987L29.9976 123.564C30.1929 119.636 33.1781 116.423 37.0694 115.945L84.6719 110.1C89.0973 109.557 93.1208 112.71 93.6658 117.149Z" fill="#407EA0"/>
</g>
<mask id="mask2_5_33" style="mask-type:alpha" maskUnits="userSpaceOnUse" x="22" y="192" width="85" height="40">
<path fill-rule="evenodd" clip-rule="evenodd" d="M22.4772 202.575L102.787 192.714L106.318 221.47L26.008 231.331L22.4772 202.575Z" fill="white"/>
</mask>
<g mask="url(#mask2_5_33)">
<path fill-rule="evenodd" clip-rule="evenodd" d="M25.9547 202.148L24.9719 221.887C24.7202 226.919 29.0447 230.958 34.0182 230.348L98.3102 222.454C102.736 221.91 105.876 217.871 105.33 213.424L102.787 192.714L25.9547 202.148Z" fill="#407EA0" stroke="#CACACA"/>
</g>
<path fill-rule="evenodd" clip-rule="evenodd" d="M60.872 202.407C61.4777 207.34 57.9693 211.831 53.0359 212.437C48.1024 213.042 43.6119 209.534 43.0061 204.601C42.4004 199.667 45.9087 195.177 50.8422 194.571C55.7757 193.965 60.2662 197.473 60.872 202.407Z" fill="#ADC6D3"/>
<path fill-rule="evenodd" clip-rule="evenodd" d="M57.872 202.407C58.4777 207.34 54.9689 211.831 50.0359 212.437C45.1024 213.042 40.6119 209.534 40.0061 204.601C39.4004 199.667 42.9087 195.177 47.8422 194.571C52.7752 193.965 57.2662 197.473 57.872 202.407Z" fill="#ADC6D3"/>
<path opacity="0.3" fill-rule="evenodd" clip-rule="evenodd" d="M51.1424 195.169C52.4293 196.303 53.3224 197.876 53.5457 199.695C54.0374 203.7 51.1173 207.354 47.0234 207.856C44.1606 208.208 41.4862 206.922 39.9655 204.751C39.9675 204.767 39.9671 204.783 39.9692 204.8C40.5617 209.625 45.0414 213.046 49.9749 212.44C54.9084 211.835 58.4275 207.432 57.835 202.606C57.3799 198.9 54.6284 196.03 51.1424 195.169Z" fill="#418DB7"/>
<mask id="mask3_5_33" style="mask-type:alpha" maskUnits="userSpaceOnUse" x="131" y="1" width="125" height="215">
<path fill-rule="evenodd" clip-rule="evenodd" d="M131.328 13.3744L230.769 1.16456L255.629 203.634L156.188 215.844L131.328 13.3744Z" fill="white"/>
</mask>
<g mask="url(#mask3_5_33)">
<path fill-rule="evenodd" clip-rule="evenodd" d="M243.251 102.815C242.424 96.0815 238.465 90.5413 233.219 87.7685L233.219 87.7661C233.207 87.7605 233.196 87.7554 233.184 87.7493C232.837 87.567 232.486 87.3942 232.128 87.2364C232.117 87.2312 232.106 87.2274 232.095 87.2227C231.779 87.0841 231.458 86.9579 231.135 86.8391C231.037 86.8033 230.938 86.7684 230.838 86.7336C230.56 86.6378 230.28 86.549 229.998 86.4685C229.927 86.4485 229.858 86.425 229.788 86.4059C229.453 86.3148 229.114 86.2374 228.774 86.1682C228.647 86.1424 228.519 86.1209 228.391 86.0976C228.141 86.0516 227.89 86.0152 227.638 85.9826C227.538 85.9695 227.439 85.9549 227.339 85.9442C226.987 85.9055 226.633 85.8779 226.277 85.8634C226.197 85.86 226.116 85.861 226.036 85.8591C225.741 85.8516 225.444 85.8527 225.147 85.862C225.041 85.865 224.937 85.8684 224.832 85.8733C224.461 85.8926 224.089 85.9199 223.716 85.9657L208.265 87.8628L172.933 92.2011C173.027 91.618 173.118 91.0162 173.205 90.403C173.252 90.0713 173.297 89.7323 173.342 89.3915C173.385 89.0583 173.427 88.7202 173.468 88.3784C173.508 88.0443 173.548 87.7125 173.584 87.3703C173.654 86.7353 173.718 86.0891 173.776 85.4269L173.774 85.4272C174.713 74.4558 173.967 59.8309 168.387 42.4016C157.597 8.71733 138.015 9.65654 131.586 15.4742C138.991 18.2857 147.204 26.4039 152.936 44.2987C159.758 65.6049 159.358 82.7282 157.482 94.0982L158.436 101.868L215.176 94.9012C221.279 94.1518 226.968 98.4062 227.776 104.521C227.784 104.584 227.792 104.648 227.8 104.712C228.777 112.665 225.108 120.058 219.11 123.64C222.543 126.286 225.024 130.414 225.62 135.267C226.555 142.882 222.582 149.89 216.413 152.536C219.602 154.939 221.909 158.746 222.458 163.219L222.52 163.726C223.355 170.524 219.906 176.803 214.475 179.315C218.027 181.76 220.624 185.845 221.22 190.698L221.4 192.164C222.443 200.659 216.989 208.378 209.285 209.324L224.735 207.427C232.44 206.481 237.893 198.762 236.85 190.267L236.67 188.801C236.074 183.948 233.477 179.863 229.926 177.417C235.356 174.906 238.806 168.627 237.971 161.829L237.909 161.322C237.36 156.849 235.053 153.042 231.864 150.639C238.033 147.993 242.006 140.985 241.071 133.37C240.475 128.517 237.994 124.389 234.56 121.743C240.558 118.161 244.227 110.768 243.251 102.815Z" fill="#F1AF6F"/>
</g>
<path fill-rule="evenodd" clip-rule="evenodd" d="M48.2728 197.785C49.1269 198.531 48.9983 200.128 47.9854 201.353C46.972 202.579 45.4587 202.968 44.605 202.222C43.7509 201.476 43.8799 199.879 44.8925 198.654C45.9054 197.429 47.4188 197.04 48.2728 197.785Z" fill="white"/>
</svg>
