<svg width="23" height="20" viewBox="0 0 23 20" fill="none" xmlns="http://www.w3.org/2000/svg">
<path d="M8.10411 14.3773L8.10228 14.3761C7.08724 13.7109 6.0421 13.0939 4.96668 12.5198L8.10411 14.3773ZM8.10411 14.3773C8.21111 14.4468 8.29773 14.5402 8.35725 14.6486C8.41672 14.7569 8.44756 14.8772 8.44769 14.9988L8.44761 18.7457C8.44761 19.1474 8.10786 19.4954 7.66981 19.4954C7.23176 19.4954 6.89201 19.1474 6.89201 18.7457V15.6651V15.394L6.66492 15.2461L4.24388 13.6691L3.67989 13.3017L3.49106 13.9477L2.02846 18.9517L8.10411 14.3773ZM4.40858 14.3731L6.39201 15.6651L4.40858 14.3731ZM4.40858 14.3731L4.45089 14.2283L3.97097 14.088L3.69807 14.507L3.82446 14.5893L4.40858 14.3731ZM2.65116 11.2859L4.96635 12.5196L2.02837 18.952C1.91175 19.3495 1.51799 19.5904 1.05986 19.4682C0.626046 19.3525 0.417381 18.9157 0.53016 18.5514L0.530222 18.5514L0.532483 18.5436L2.65116 11.2859ZM12.4254 16.751H12.4255L14.0233 16.7506L14.3073 16.7505L14.4527 16.5066L14.8455 15.8476L15.1134 15.398L14.6521 15.1508L1.21118 7.95115L1.21119 7.95114L1.20794 7.94944C0.846501 7.75922 0.764654 7.3119 0.921745 7.08506L0.923871 7.08196C0.950221 7.04329 0.969875 7.01465 0.987226 6.99114L3.20549 4.51187C3.35685 4.34681 3.57416 4.24946 3.80023 4.24946H6.73917C7.31211 4.24946 7.89017 4.37888 8.44465 4.59291C8.54188 4.64364 8.62998 4.66706 8.67916 4.67989C8.71658 4.68965 8.73112 4.6937 8.73485 4.69456C8.76705 4.70979 8.79593 4.72044 8.81792 4.72783C8.83912 4.73495 8.85908 4.74068 8.86876 4.74346L8.87051 4.74396C8.87058 4.74398 8.87065 4.744 8.87071 4.74402C10.1576 5.37891 11.0501 6.55572 11.3641 7.9559L12.3215 12.6855L12.3682 12.9164L12.5759 13.0274L15.1818 14.4196L15.601 14.6436L15.8459 14.2363L17.1168 12.1227C17.1172 12.1221 17.1176 12.1215 17.118 12.1209C17.435 11.6082 18.2108 11.6389 18.4859 12.1672C18.4862 12.1679 18.4866 12.1685 18.4869 12.1691L22.1874 19.4985H10.9251L11.687 17.2678C11.6871 17.2677 11.6871 17.2676 11.6872 17.2674C11.7919 16.9639 12.0823 16.751 12.4254 16.751ZM3.99535 8.41389L4.34361 8.60048L4.60567 8.30481L6.16339 6.54727L6.90048 5.71563H5.78921H4.41637H4.19289L4.04383 5.88214L2.92057 7.13691L2.49636 7.61077L3.05697 7.91113L3.99535 8.41389ZM7.59075 9.67762L7.18113 10.1516L7.73415 10.4459L9.66683 11.4745L10.6039 11.9732L10.3916 10.9331L9.85256 8.29195L9.64922 7.29567L8.98435 8.06501L7.59075 9.67762ZM12.2804 1.87356C12.2804 2.62209 11.6568 3.24751 10.8641 3.24751C10.0711 3.24751 9.44737 2.62221 9.44737 1.87395C9.44737 1.12555 10.0712 0.5 10.8641 0.5C11.6569 0.5 12.2804 1.12516 12.2804 1.87356Z" stroke="black"/>
</svg>
