<svg width="23" height="20" viewBox="0 0 23 20" fill="none" xmlns="http://www.w3.org/2000/svg">
<path d="M10.8641 3.74751C11.9223 3.74751 12.7804 2.90878 12.7804 1.87356C12.7804 0.838335 11.9223 0 10.8641 0C9.8059 0 8.94737 0.838726 8.94737 1.87395C8.94737 2.90917 9.8059 3.74751 10.8641 3.74751ZM8.37636 13.9579C7.34812 13.2841 6.28995 12.6594 5.20182 12.0785L2.34353 10.5554L0.0525152 18.4035C-0.14215 19.0325 0.216234 19.7606 0.931004 19.9513C1.64577 20.1419 2.31383 19.756 2.50829 19.0922L3.97097 14.088L6.39201 15.6651V18.7457C6.39201 19.4341 6.96622 19.9954 7.66981 19.9954C8.3734 19.9954 8.94761 19.4341 8.94761 18.7457L8.94769 14.9982C8.94746 14.7922 8.89518 14.5894 8.7955 14.4079C8.69582 14.2264 8.55184 14.0718 8.37636 13.9579ZM12.4254 16.251C11.8711 16.251 11.3892 16.5973 11.2143 17.105L10.226 19.9985H23L18.931 11.9394C18.4766 11.0609 17.21 11.0163 16.6909 11.8609L15.4174 13.9786L12.8115 12.5864L11.8532 7.85167C11.507 6.30118 10.5127 4.9886 9.07116 4.28543C9.03123 4.2659 8.98631 4.26101 8.94638 4.24148C8.85653 4.19753 8.75662 4.19851 8.65679 4.13894C8.04892 3.90064 7.39804 3.74946 6.73917 3.74946H3.80023C3.43086 3.74946 3.07947 3.9081 2.83469 4.17644L0.600533 6.67347C0.570584 6.71254 0.540636 6.75645 0.510687 6.8004C0.156297 7.31215 0.390893 8.08446 0.975088 8.3919L14.416 15.5916L14.0232 16.2506L12.4254 16.251ZM4.23149 7.97317L3.2931 7.4704L4.41637 6.21563H5.78921L4.23149 7.97317ZM7.96906 10.0045L9.36266 8.39194L9.90173 11.0331L7.96906 10.0045Z" fill="#01BCAD"/>
</svg>
