<svg xmlns="http://www.w3.org/2000/svg" viewBox="0 0 32 32"><g class="color000000 svgShape" transform="translate(-149.559 -1368.598) scale(3.77953)"><rect width="1.852" height=".661" x="-42.299" y="367.773" fill="#ea4335" class="colore77f1c svgShape" rx=".132" ry=".132" transform="scale(-1 1)"/><path fill="#fff" d="m 153.87695,299.48828 c -0.277,0 -0.5,0.223 -0.5,0.5 v 1.5 c 0,0.277 0.223,0.5 0.5,0.5 h 0.25196 c -0.277,0 -0.5,-0.223 -0.5,-0.5 v -1.5 c 0,-0.277 0.223,-0.5 0.5,-0.5 z" class="colorffffff svgShape" opacity=".1" transform="translate(0 288.533) scale(.26458)"/><path style="line-height:normal;font-variant-ligatures:normal;font-variant-position:normal;font-variant-caps:normal;font-variant-numeric:normal;font-variant-alternates:normal;font-feature-settings:normal;text-indent:0;text-align:start;text-decoration-line:none;text-decoration-style:solid;text-decoration-color:#000;text-transform:none;text-orientation:mixed;shape-padding:0;isolation:auto;mix-blend-mode:normal" fill="#fbbc05" d="m 40.645656,367.773 -1e-6,-0.79289 c -10e-7,-1.05038 0.867872,-1.9187 1.918318,-1.9187 h 0.396484 v -0.19849 c 0,-0.36654 0.295103,-0.66162 0.661667,-0.66162 h 0.1985 v -0.66162 h 0.661667 v 0.66162 h 0.1985 c 0.366565,0 0.661668,0.29508 0.661668,0.66162 v 0.19849 h 1.851634 v 1.45557 h -4.63012 c -0.269183,0 -0.463167,0.19395 -0.463167,0.46313 v 0.79289" class="colorf39d0a svgShape" color="#000" font-family="sans-serif" font-weight="400" overflow="visible"/><path fill="#34a853" d="m 43.82058,363.53959 v 0.17519 h 0.661458 v -0.17519 z" class="color3b3c3d svgShape" opacity=".1"/><path fill="#4285f4" d="M42.001645 368.99671l.165364.16536.165364-.16536-.165364-.16537zM41.207896 368.99671l.165364.16536.165364-.16536-.165364-.16537zM40.414146 368.99674l.165364.16536.165364-.16536-.165364-.16537zM41.604772 369.52592l.165364.16536.165364-.16536-.165364-.16537zM40.81102 369.52595l.165364.16536.165364-.16536-.165364-.16537zM41.207896 370.05511l.165364-.16536.165364.16536-.165364.16537z" class="color1eaae1 svgShape"/><path fill="#ea4335" d="m 44.151386,362.46266 a 0.50582111,0.50396555 0 0 1 0.50582,0.50397 h 0.743418 a 0.50582111,0.50396555 0 0 1 0.394679,-0.18899 0.50582111,0.50396555 0 0 1 0.505821,0.50397 0.50582111,0.50396555 0 0 1 -0.505821,0.50397 0.50582111,0.50396555 0 0 1 -0.394185,-0.18899 h -2.499466 a 0.50582111,0.50396555 0 0 1 -0.394185,0.18899 0.50582111,0.50396555 0 0 1 -0.505821,-0.50397 0.50582111,0.50396555 0 0 1 0.505821,-0.50397 0.50582111,0.50396555 0 0 1 0.394679,0.18899 h 0.743418 a 0.50582111,0.50396555 0 0 1 0.505822,-0.50397 z" class="colore77f1c svgShape"/><path fill="#fff" d="m 44.151309,362.46266 a 0.5058211,0.50396555 0 0 0 -0.505913,0.50384 H 42.90229 a 0.5058211,0.50396555 0 0 0 -0.394808,-0.18862 0.5058211,0.50396555 0 0 0 -0.505913,0.50385 0.5058211,0.50396555 0 0 0 0.0016,0.0326 0.5058211,0.50396555 0 0 1 0.504362,-0.47645 0.5058211,0.50396555 0 0 1 0.394808,0.18913 h 0.743106 a 0.5058211,0.50396555 0 0 1 0.505913,-0.50384 0.5058211,0.50396555 0 0 1 0.505912,0.50384 h 0.743625 a 0.5058211,0.50396555 0 0 1 0.39429,-0.18913 0.5058211,0.50396555 0 0 1 0.50488,0.46715 0.5058211,0.50396555 0 0 0 0.0011,-0.0233 0.5058211,0.50396555 0 0 0 -0.505913,-0.50384 0.5058211,0.50396555 0 0 0 -0.39429,0.18862 h -0.743624 a 0.5058211,0.50396555 0 0 0 -0.505913,-0.50385 z" class="colorffffff svgShape" opacity=".3"/><path fill="#fff" d="m 44.151309,362.52312 a 0.5058211,0.50396555 0 0 0 -0.505913,0.50384 H 42.90229 a 0.5058211,0.50396555 0 0 0 -0.394808,-0.18913 0.5058211,0.50396555 0 0 0 -0.505913,0.50436 0.5058211,0.50396555 0 0 0 0.0016,0.0325 0.5058211,0.50396555 0 0 1 0.504362,-0.47645 0.5058211,0.50396555 0 0 1 0.394808,0.18914 h 0.743106 a 0.5058211,0.50396555 0 0 1 0.505913,-0.50385 0.5058211,0.50396555 0 0 1 0.505912,0.50385 h 0.743625 a 0.5058211,0.50396555 0 0 1 0.39429,-0.18914 0.5058211,0.50396555 0 0 1 0.50488,0.46715 0.5058211,0.50396555 0 0 0 0.0011,-0.0232 0.5058211,0.50396555 0 0 0 -0.505913,-0.50436 0.5058211,0.50396555 0 0 0 -0.39429,0.18913 h -0.743624 a 0.5058211,0.50396555 0 0 0 -0.505913,-0.50385 z" class="colorffffff svgShape" opacity=".2"/><path fill="#34a853" d="m 153.62109,298.98828 v 0.5 h 5.5 v -0.5 z" class="color3b3c3d svgShape" opacity=".1" transform="translate(0 288.533) scale(.26458)"/><path fill="#fff" d="m 153.37109,299.48828 c -0.277,0 -0.5,0.223 -0.5,0.5 v 1.5 c 0,0.277 0.223,0.5 0.5,0.5 h 0.25196 c -0.277,0 -0.5,-0.223 -0.5,-0.5 v -1.5 c 0,-0.277 0.223,-0.5 0.5,-0.5 z" class="colorffffff svgShape" opacity=".3" transform="translate(0 288.533) scale(.26458)"/><path fill="#fff" d="m 153.62305,299.48828 c -0.277,0 -0.5,0.223 -0.5,0.5 v 1.5 c 0,0.277 0.223,0.5 0.5,0.5 h 0.2539 c -0.277,0 -0.5,-0.223 -0.5,-0.5 v -1.5 c 0,-0.277 0.223,-0.5 0.5,-0.5 z" class="colorffffff svgShape" opacity=".2" transform="translate(0 288.533) scale(.26458)"/></g></svg>